<?xml version="1.0" encoding="UTF-8"?>
<svg width="512px" height="256px" viewBox="0 0 512 256" version="1.1" xmlns="http://www.w3.org/2000/svg" xmlns:xlink="http://www.w3.org/1999/xlink">
    <!-- Generator: Sketch 52.6 (67491) - http://www.bohemiancoding.com/sketch -->
    <title>Rect2x1</title>
    <desc>Created with Sketch.</desc>
    <defs>
        <path d="M127.39075,130.863 L126.13675,130.863 C126.11475,129.476993 125.977251,128.371504 125.72425,127.5465 C125.471249,126.721496 125.042253,126.105502 124.43725,125.6985 C123.832247,125.291498 122.968756,125.088 121.84675,125.088 L119.04175,125.088 L119.00875,143.073 C119.00875,144.239006 118.97575,145.107997 118.90975,145.68 L121.64875,145.548 L121.64875,147 L113.89375,147 L113.89375,145.911 C114.839755,145.867 115.450249,145.603002 115.72525,145.119 C116.000251,144.634998 116.13775,143.887005 116.13775,142.875 L116.13775,141.852 L116.17075,125.121 L112.77175,125.154 C111.407743,125.154 110.434253,125.610495 109.85125,126.5235 C109.268247,127.436505 108.97675,128.88299 108.97675,130.863 L107.75575,130.863 L107.95375,123.9 L127.19275,123.9 L127.39075,130.863 Z M136.15225,132.15 C136.922254,131.511997 137.791245,130.989502 138.75925,130.5825 C139.727255,130.175498 140.662245,129.972 141.56425,129.972 C143.456259,129.972 144.831246,130.565994 145.68925,131.754 C146.547254,132.942006 146.98725,134.811987 147.00925,137.364 L147.04225,143.502 C147.04225,144.492005 146.99825,145.239997 146.91025,145.746 L148.98925,145.647 L148.98925,147 L142.25725,147 L142.25725,146.01 C142.895253,146.01 143.351749,145.850502 143.62675,145.5315 C143.901751,145.212498 144.06675,144.805502 144.12175,144.3105 C144.17675,143.815498 144.20425,143.040005 144.20425,141.984 L144.20425,137.364 C144.20425,135.471991 143.907253,134.058505 143.31325,133.1235 C142.719247,132.188495 141.784256,131.721 140.50825,131.721 C139.694246,131.721 138.885754,131.913498 138.08275,132.2985 C137.279746,132.683502 136.636252,133.172997 136.15225,133.767 L136.15225,143.502 C136.15225,144.360004 136.097251,145.107997 135.98725,145.746 L138.06625,145.647 L138.06625,147 L131.33425,147 L131.33425,146.01 C131.972253,146.01 132.434249,145.850502 132.72025,145.5315 C133.006251,145.212498 133.17675,144.800003 133.23175,144.294 C133.28675,143.787997 133.31425,143.018005 133.31425,141.984 L133.31425,126.375 C133.31425,125.538996 133.34725,124.824003 133.41325,124.23 L131.07025,124.362 L131.07025,122.976 C132.390257,122.976 133.330747,122.899001 133.89175,122.745 C134.452753,122.590999 134.887248,122.371001 135.19525,122.085 L136.15225,122.085 L136.15225,132.15 Z M161.74375,129.972 C162.997756,129.972 164.130745,130.246997 165.14275,130.797 C166.154755,131.347003 166.957747,132.166495 167.55175,133.2555 C168.145753,134.344505 168.44275,135.680992 168.44275,137.265 L156.82675,137.463 C156.80475,140.103013 157.239246,142.159993 158.13025,143.634 C159.021254,145.108007 160.401741,145.845 162.27175,145.845 C163.283755,145.845 164.323245,145.581003 165.39025,145.053 C166.457255,144.524997 167.276747,143.876004 167.84875,143.106 L168.64075,143.766 C167.804746,145.042006 166.721257,145.987997 165.39025,146.604 C164.059243,147.220003 162.755756,147.528 161.47975,147.528 C159.961742,147.528 158.592256,147.170504 157.37125,146.4555 C156.150244,145.740496 155.187754,144.717507 154.48375,143.3865 C153.779746,142.055493 153.42775,140.521009 153.42775,138.783 C153.42775,137.242992 153.779746,135.796507 154.48375,134.4435 C155.187754,133.090493 156.172244,132.007004 157.43725,131.193 C158.702256,130.378996 160.137742,129.972 161.74375,129.972 Z M161.77675,131.259 C159.048736,131.259 157.431753,132.864984 156.92575,136.077 L165.34075,136.077 C165.34075,134.756993 165.043753,133.624005 164.44975,132.678 C163.855747,131.731995 162.964756,131.259 161.77675,131.259 Z M195.73375,123.372 C198.263763,123.372 200.414241,123.971494 202.18525,125.1705 C203.956259,126.369506 205.281746,127.892991 206.16175,129.741 C207.041754,131.589009 207.48175,133.49199 207.48175,135.45 C207.48175,137.38601 207.047254,139.283491 206.17825,141.1425 C205.309246,143.001509 204.011259,144.530494 202.28425,145.7295 C200.557241,146.928506 198.461762,147.528 195.99775,147.528 C193.357737,147.528 191.157759,146.945006 189.39775,145.779 C187.637741,144.612994 186.339754,143.111509 185.50375,141.2745 C184.667746,139.437491 184.24975,137.49601 184.24975,135.45 C184.24975,133.49199 184.684246,131.589009 185.55325,129.741 C186.422254,127.892991 187.720241,126.369506 189.44725,125.1705 C191.174259,123.971494 193.269738,123.372 195.73375,123.372 Z M195.63475,124.692 C193.918741,124.692 192.444756,125.181495 191.21275,126.1605 C189.980744,127.139505 189.051253,128.409992 188.42425,129.972 C187.797247,131.534008 187.48375,133.161992 187.48375,134.856 C187.48375,136.594009 187.802747,138.337491 188.44075,140.0865 C189.078753,141.835509 190.046744,143.287494 191.34475,144.4425 C192.642756,145.597506 194.215741,146.175 196.06375,146.175 C197.779759,146.175 199.248244,145.685505 200.46925,144.7065 C201.690256,143.727495 202.614247,142.468008 203.24125,140.928 C203.868253,139.387992 204.18175,137.771008 204.18175,136.077 C204.18175,134.206991 203.840753,132.397509 203.15875,130.6485 C202.476747,128.899491 201.486756,127.469506 200.18875,126.3585 C198.890744,125.247494 197.372759,124.692 195.63475,124.692 Z M222.05125,129.972 C223.349256,129.972 224.548245,130.307497 225.64825,130.9785 C226.748255,131.649503 227.633747,132.606494 228.30475,133.8495 C228.975753,135.092506 229.31125,136.527992 229.31125,138.156 C229.31125,139.982009 228.926254,141.604493 228.15625,143.0235 C227.386246,144.442507 226.357756,145.547996 225.07075,146.34 C223.783744,147.132004 222.392257,147.528 220.89625,147.528 C219.378242,147.528 218.058256,147.165004 216.93625,146.439 L216.93625,151.917 C216.93625,152.907005 216.89225,153.654997 216.80425,154.161 L218.88325,154.062 L218.88325,155.415 L212.15125,155.415 L212.15125,154.425 C212.789253,154.425 213.245749,154.265502 213.52075,153.9465 C213.795751,153.627498 213.95525,153.231502 213.99925,152.7585 C214.04325,152.285498 214.07625,151.499006 214.09825,150.399 L214.16425,134.46 C214.16425,133.535995 214.20825,132.821003 214.29625,132.315 L211.95325,132.447 L211.95325,131.061 C213.251256,131.061 214.142248,130.989501 214.62625,130.8465 C215.110252,130.703499 215.506248,130.478002 215.81425,130.17 L216.80425,130.17 C216.89225,131.248005 216.93625,131.841999 216.93625,131.952 C217.596253,131.357997 218.388245,130.879502 219.31225,130.5165 C220.236255,130.153498 221.149245,129.972 222.05125,129.972 Z M220.86325,131.589 C220.137246,131.589 219.433253,131.764998 218.75125,132.117 C218.069247,132.469002 217.475253,132.908997 216.96925,133.437 C216.99125,133.591001 217.00225,134.261994 217.00225,135.45 L216.96925,144.921 C218.091256,145.779004 219.378243,146.208 220.83025,146.208 C221.864255,146.208 222.760746,145.889003 223.51975,145.251 C224.278754,144.612997 224.867248,143.722006 225.28525,142.578 C225.703252,141.433994 225.91225,140.136007 225.91225,138.684 C225.91225,136.70399 225.488754,135.026507 224.64175,133.6515 C223.794746,132.276493 222.535258,131.589 220.86325,131.589 Z M242.46175,129.972 C243.715756,129.972 244.848745,130.246997 245.86075,130.797 C246.872755,131.347003 247.675747,132.166495 248.26975,133.2555 C248.863753,134.344505 249.16075,135.680992 249.16075,137.265 L237.54475,137.463 C237.52275,140.103013 237.957246,142.159993 238.84825,143.634 C239.739254,145.108007 241.119741,145.845 242.98975,145.845 C244.001755,145.845 245.041245,145.581003 246.10825,145.053 C247.175255,144.524997 247.994747,143.876004 248.56675,143.106 L249.35875,143.766 C248.522746,145.042006 247.439257,145.987997 246.10825,146.604 C244.777243,147.220003 243.473756,147.528 242.19775,147.528 C240.679742,147.528 239.310256,147.170504 238.08925,146.4555 C236.868244,145.740496 235.905754,144.717507 235.20175,143.3865 C234.497746,142.055493 234.14575,140.521009 234.14575,138.783 C234.14575,137.242992 234.497746,135.796507 235.20175,134.4435 C235.905754,133.090493 236.890244,132.007004 238.15525,131.193 C239.420256,130.378996 240.855742,129.972 242.46175,129.972 Z M242.49475,131.259 C239.766736,131.259 238.149753,132.864984 237.64375,136.077 L246.05875,136.077 C246.05875,134.756993 245.761753,133.624005 245.16775,132.678 C244.573747,131.731995 243.682756,131.259 242.49475,131.259 Z M264.29125,129.972 C266.20526,129.972 267.602246,130.571494 268.48225,131.7705 C269.362254,132.969506 269.80225,134.833987 269.80225,137.364 L269.80225,143.502 C269.80225,144.492005 269.75825,145.239997 269.67025,145.746 L271.74925,145.647 L271.74925,147 L265.01725,147 L265.01725,146.01 C265.655253,146.01 266.111749,145.850502 266.38675,145.5315 C266.661751,145.212498 266.82675,144.805502 266.88175,144.3105 C266.93675,143.815498 266.96425,143.040005 266.96425,141.984 L266.96425,137.364 C266.94225,135.471991 266.634253,134.047505 266.04025,133.0905 C265.446247,132.133495 264.511256,131.655 263.23525,131.655 C262.443246,131.655 261.656754,131.852998 260.87575,132.249 C260.094746,132.645002 259.451253,133.161997 258.94525,133.8 C258.96725,134.042001 258.97825,134.470997 258.97825,135.087 L258.94525,143.502 C258.94525,144.492005 258.90125,145.239997 258.81325,145.746 L260.89225,145.647 L260.89225,147 L254.16025,147 L254.16025,146.01 C254.798253,146.01 255.254749,145.850502 255.52975,145.5315 C255.804751,145.212498 255.96425,144.816502 256.00825,144.3435 C256.05225,143.870498 256.08525,143.084005 256.10725,141.984 L256.14025,134.46 C256.14025,133.535995 256.18425,132.821003 256.27225,132.315 L253.92925,132.447 L253.92925,131.061 C255.227256,131.061 256.118248,130.989501 256.60225,130.8465 C257.086252,130.703499 257.493248,130.478002 257.82325,130.17 L258.78025,130.17 C258.82425,130.588002 258.86825,131.258995 258.91225,132.183 C259.660254,131.522997 260.512745,130.989502 261.46975,130.5825 C262.426755,130.175498 263.367245,129.972 264.29125,129.972 Z M294.22225,123.372 C295.212255,123.372 296.207745,123.498499 297.20875,123.7515 C298.209755,124.004501 299.128246,124.438997 299.96425,125.055 L299.83225,123.636 L301.51525,123.636 L301.51525,130.896 L300.32725,130.896 C300.217249,129.157991 299.661755,127.689506 298.66075,126.4905 C297.659745,125.291494 296.257259,124.692 294.45325,124.692 C293.133243,124.692 292.099254,125.060496 291.35125,125.7975 C290.603246,126.534504 290.22925,127.452994 290.22925,128.553 C290.22925,129.433004 290.482247,130.191997 290.98825,130.83 C291.494253,131.468003 292.110246,131.995998 292.83625,132.414 C293.562254,132.832002 294.585243,133.348997 295.90525,133.965 C297.401257,134.647003 298.605745,135.262997 299.51875,135.813 C300.431755,136.363003 301.207247,137.083496 301.84525,137.9745 C302.483253,138.865504 302.80225,139.959994 302.80225,141.258 C302.80225,142.490006 302.499753,143.578995 301.89475,144.525 C301.289747,145.471005 300.404256,146.207997 299.23825,146.736 C298.072244,147.264003 296.686258,147.528 295.08025,147.528 C294.046245,147.528 293.006755,147.385001 291.96175,147.099 C290.916745,146.812999 289.998254,146.395003 289.20625,145.845 L289.37125,147.264 L287.65525,147.264 L287.45725,140.235 L288.74425,140.235 C288.854251,142.127009 289.503244,143.584495 290.69125,144.6075 C291.879256,145.630505 293.386241,146.142 295.21225,146.142 C296.554257,146.142 297.681745,145.773504 298.59475,145.0365 C299.507755,144.299496 299.96425,143.293006 299.96425,142.017 C299.96425,141.070995 299.705753,140.262503 299.18875,139.5915 C298.671747,138.920497 298.033754,138.359502 297.27475,137.9085 C296.515746,137.457498 295.487256,136.935003 294.18925,136.341 C292.715243,135.636996 291.543754,135.021003 290.67475,134.493 C289.805746,133.964997 289.063253,133.266504 288.44725,132.3975 C287.831247,131.528496 287.52325,130.456006 287.52325,129.18 C287.52325,128.299996 287.726748,127.420004 288.13375,126.54 C288.540752,125.659996 289.244745,124.912003 290.24575,124.296 C291.246755,123.679997 292.572242,123.372 294.22225,123.372 Z M315.95275,129.972 C317.470758,129.972 318.867744,130.340496 320.14375,131.0775 C321.419756,131.814504 322.426246,132.820994 323.16325,134.097 C323.900254,135.373006 324.26875,136.791992 324.26875,138.354 C324.26875,140.026008 323.900254,141.565993 323.16325,142.974 C322.426246,144.382007 321.425256,145.492996 320.16025,146.307 C318.895244,147.121004 317.492758,147.528 315.95275,147.528 C314.434742,147.528 313.043256,147.170504 311.77825,146.4555 C310.513244,145.740496 309.512254,144.745006 308.77525,143.469 C308.038246,142.192994 307.66975,140.752008 307.66975,139.146 C307.66975,137.429991 308.032746,135.873507 308.75875,134.4765 C309.484754,133.079493 310.480244,131.979504 311.74525,131.1765 C313.010256,130.373496 314.412742,129.972 315.95275,129.972 Z M315.95275,131.226 C314.324742,131.226 313.098254,131.896993 312.27325,133.239 C311.448246,134.581007 311.03575,136.23099 311.03575,138.189 C311.03575,139.597007 311.228248,140.911494 311.61325,142.1325 C311.998252,143.353506 312.581246,144.337996 313.36225,145.086 C314.143254,145.834004 315.094744,146.208 316.21675,146.208 C317.822758,146.208 319.005246,145.548007 319.76425,144.228 C320.523254,142.907993 320.90275,141.26901 320.90275,139.311 C320.90275,137.088989 320.490254,135.186008 319.66525,133.602 C318.840246,132.017992 317.602758,131.226 315.95275,131.226 Z M344.18425,142.644 C344.18425,143.920006 344.14025,144.953996 344.05225,145.746 L346.42825,145.614 L346.42825,147 L341.70925,147 C341.599249,146.317997 341.52225,145.658003 341.47825,145.02 C340.752246,145.746004 339.905255,146.345498 338.93725,146.8185 C337.969245,147.291502 337.023255,147.528 336.09925,147.528 C334.229241,147.528 332.859754,146.989005 331.99075,145.911 C331.121746,144.832995 330.68725,142.974013 330.68725,140.334 L330.68725,134.46 C330.68725,133.535995 330.73125,132.821003 330.81925,132.315 L328.54225,132.414 L328.54225,131.061 L329.56525,131.061 C330.423254,131.061 331.072248,130.984001 331.51225,130.83 C331.952252,130.675999 332.326248,130.456001 332.63425,130.17 L333.59125,130.17 L333.59125,140.235 C333.59125,142.17101 333.860747,143.589995 334.39975,144.492 C334.938753,145.394005 335.835244,145.845 337.08925,145.845 C337.903254,145.845 338.700746,145.603002 339.48175,145.119 C340.262754,144.634998 340.895248,144.030004 341.37925,143.304 L341.37925,134.823 C341.37925,133.788995 341.434249,132.953003 341.54425,132.315 L339.16825,132.414 L339.16825,131.061 L340.19125,131.061 C341.049254,131.061 341.698248,130.984001 342.13825,130.83 C342.578252,130.675999 342.952248,130.456001 343.26025,130.17 L344.21725,130.17 L344.18425,142.644 Z M361.19575,129.972 C361.855753,129.972 362.405748,130.147998 362.84575,130.5 C363.285752,130.852002 363.50575,131.368997 363.50575,132.051 C363.50575,132.403002 363.368251,132.754998 363.09325,133.107 C362.818249,133.459002 362.427753,133.635 361.92175,133.635 C361.437748,133.635 361.041752,133.453502 360.73375,133.0905 C360.425748,132.727498 360.30475,132.293003 360.37075,131.787 C359.534746,131.765 358.693254,132.083997 357.84625,132.744 C356.999246,133.404003 356.278753,134.283995 355.68475,135.384 L355.71775,143.502 C355.71775,144.492005 355.67375,145.239997 355.58575,145.746 L357.66475,145.647 L357.66475,147 L350.89975,147 L350.89975,146.01 C351.537753,146.01 351.994249,145.850502 352.26925,145.5315 C352.544251,145.212498 352.70925,144.805502 352.76425,144.3105 C352.81925,143.815498 352.84675,143.040005 352.84675,141.984 L352.84675,134.46 C352.84675,133.535995 352.89075,132.821003 352.97875,132.315 L350.63575,132.414 L350.63575,131.061 L351.65875,131.061 C352.494754,131.061 353.099748,130.989501 353.47375,130.8465 C353.847752,130.703499 354.199748,130.478002 354.52975,130.17 L355.48675,130.17 C355.57475,131.028004 355.62975,132.116993 355.65175,133.437 C356.201753,132.534995 356.988245,131.732004 358.01125,131.028 C359.034255,130.323996 360.095745,129.972 361.19575,129.972 Z M375.53425,129.972 C376.722256,129.972 377.778245,130.158998 378.70225,130.533 C379.626255,130.907002 380.346747,131.401997 380.86375,132.018 C381.380753,132.634003 381.63925,133.304996 381.63925,134.031 C381.63925,134.537003 381.496251,134.954998 381.21025,135.285 C380.924249,135.615002 380.528253,135.78 380.02225,135.78 C379.538248,135.78 379.175251,135.620502 378.93325,135.3015 C378.691249,134.982498 378.57025,134.647002 378.57025,134.295 C378.57025,133.744997 378.735248,133.305002 379.06525,132.975 C378.823249,132.292997 378.355753,131.825501 377.66275,131.5725 C376.969747,131.319499 376.282253,131.193 375.60025,131.193 C374.588245,131.193 373.680754,131.467997 372.87775,132.018 C372.074746,132.568003 371.442252,133.370995 370.98025,134.427 C370.518248,135.483005 370.28725,136.747993 370.28725,138.222 C370.28725,139.696007 370.523748,141.004994 370.99675,142.149 C371.469752,143.293006 372.135246,144.189497 372.99325,144.8385 C373.851254,145.487503 374.841244,145.812 375.96325,145.812 C376.953255,145.812 377.926745,145.542503 378.88375,145.0035 C379.840755,144.464497 380.594247,143.788004 381.14425,142.974 L382.00225,143.634 C381.188246,144.910006 380.137756,145.877997 378.85075,146.538 C377.563744,147.198003 376.304256,147.528 375.07225,147.528 C373.576243,147.528 372.206756,147.187003 370.96375,146.505 C369.720744,145.822997 368.736254,144.844006 368.01025,143.568 C367.284246,142.291994 366.92125,140.785009 366.92125,139.047 C366.92125,137.506992 367.289746,136.038507 368.02675,134.6415 C368.763754,133.244493 369.786743,132.117004 371.09575,131.259 C372.404757,130.400996 373.884242,129.972 375.53425,129.972 Z M394.72375,129.972 C395.977756,129.972 397.110745,130.246997 398.12275,130.797 C399.134755,131.347003 399.937747,132.166495 400.53175,133.2555 C401.125753,134.344505 401.42275,135.680992 401.42275,137.265 L389.80675,137.463 C389.78475,140.103013 390.219246,142.159993 391.11025,143.634 C392.001254,145.108007 393.381741,145.845 395.25175,145.845 C396.263755,145.845 397.303245,145.581003 398.37025,145.053 C399.437255,144.524997 400.256747,143.876004 400.82875,143.106 L401.62075,143.766 C400.784746,145.042006 399.701257,145.987997 398.37025,146.604 C397.039243,147.220003 395.735756,147.528 394.45975,147.528 C392.941742,147.528 391.572256,147.170504 390.35125,146.4555 C389.130244,145.740496 388.167754,144.717507 387.46375,143.3865 C386.759746,142.055493 386.40775,140.521009 386.40775,138.783 C386.40775,137.242992 386.759746,135.796507 387.46375,134.4435 C388.167754,133.090493 389.152244,132.007004 390.41725,131.193 C391.682256,130.378996 393.117742,129.972 394.72375,129.972 Z M394.75675,131.259 C392.028736,131.259 390.411753,132.864984 389.90575,136.077 L398.32075,136.077 C398.32075,134.756993 398.023753,133.624005 397.42975,132.678 C396.835747,131.731995 395.944756,131.259 394.75675,131.259 Z M136.966331,163.834 C139.562344,163.834 141.558824,164.290495 142.955831,165.2035 C144.352838,166.116505 145.051331,167.496991 145.051331,169.345 C145.051331,170.533006 144.583836,171.627495 143.648831,172.6285 C142.713826,173.629505 141.36634,174.283998 139.606331,174.592 L139.606331,174.658 C141.960343,174.658 143.769825,175.196995 145.034831,176.275 C146.299837,177.353005 146.932331,178.771991 146.932331,180.532 C146.932331,181.852007 146.596834,183.001495 145.925831,183.9805 C145.254828,184.959505 144.330837,185.707497 143.153831,186.2245 C141.976825,186.741503 140.640338,187 139.144331,187 L129.508331,187 L129.508331,185.911 C130.278335,185.889 130.828329,185.713002 131.158331,185.383 C131.488333,185.052998 131.675331,184.651502 131.719331,184.1785 C131.763331,183.705498 131.785331,182.875006 131.785331,181.687 L131.785331,167.827 C131.785331,166.638994 131.818331,165.770003 131.884331,165.22 L129.508331,165.352 L129.508331,163.9 C132.720347,163.856 135.206322,163.834 136.966331,163.834 Z M137.131331,165.022 C136.427327,165.022 135.899333,165.120999 135.547331,165.319 C135.195329,165.517001 134.958832,165.835998 134.837831,166.276 C134.71683,166.716002 134.656331,167.364996 134.656331,168.223 L134.656331,174.361 L137.065331,174.295 C138.80334,174.273 140.068327,173.794505 140.860331,172.8595 C141.652335,171.924495 142.048331,170.775007 142.048331,169.411 C142.048331,167.760992 141.569836,166.617003 140.612831,165.979 C139.655826,165.340997 138.495338,165.022 137.131331,165.022 Z M138.055331,175.549 C136.845325,175.549 135.712336,175.582 134.656331,175.648 L134.656331,183.106 C134.656331,184.250006 134.623331,185.107997 134.557331,185.68 C134.975333,185.724 135.767325,185.746 136.933331,185.746 L138.055331,185.746 C139.79334,185.746 141.173826,185.311504 142.196831,184.4425 C143.219836,183.573496 143.731331,182.336008 143.731331,180.73 C143.731331,178.859991 143.208836,177.529004 142.163831,176.737 C141.118826,175.944996 139.749339,175.549 138.055331,175.549 Z M159.257831,163.834 C161.853844,163.834 163.850324,164.290495 165.247331,165.2035 C166.644338,166.116505 167.342831,167.496991 167.342831,169.345 C167.342831,170.533006 166.875336,171.627495 165.940331,172.6285 C165.005326,173.629505 163.65784,174.283998 161.897831,174.592 L161.897831,174.658 C164.251843,174.658 166.061325,175.196995 167.326331,176.275 C168.591337,177.353005 169.223831,178.771991 169.223831,180.532 C169.223831,181.852007 168.888334,183.001495 168.217331,183.9805 C167.546328,184.959505 166.622337,185.707497 165.445331,186.2245 C164.268325,186.741503 162.931838,187 161.435831,187 L151.799831,187 L151.799831,185.911 C152.569835,185.889 153.119829,185.713002 153.449831,185.383 C153.779833,185.052998 153.966831,184.651502 154.010831,184.1785 C154.054831,183.705498 154.076831,182.875006 154.076831,181.687 L154.076831,167.827 C154.076831,166.638994 154.109831,165.770003 154.175831,165.22 L151.799831,165.352 L151.799831,163.9 C155.011847,163.856 157.497822,163.834 159.257831,163.834 Z M159.422831,165.022 C158.718827,165.022 158.190833,165.120999 157.838831,165.319 C157.486829,165.517001 157.250332,165.835998 157.129331,166.276 C157.00833,166.716002 156.947831,167.364996 156.947831,168.223 L156.947831,174.361 L159.356831,174.295 C161.09484,174.273 162.359827,173.794505 163.151831,172.8595 C163.943835,171.924495 164.339831,170.775007 164.339831,169.411 C164.339831,167.760992 163.861336,166.617003 162.904331,165.979 C161.947326,165.340997 160.786838,165.022 159.422831,165.022 Z M160.346831,175.549 C159.136825,175.549 158.003836,175.582 156.947831,175.648 L156.947831,183.106 C156.947831,184.250006 156.914831,185.107997 156.848831,185.68 C157.266833,185.724 158.058825,185.746 159.224831,185.746 L160.346831,185.746 C162.08484,185.746 163.465326,185.311504 164.488331,184.4425 C165.511336,183.573496 166.022831,182.336008 166.022831,180.73 C166.022831,178.859991 165.500336,177.529004 164.455331,176.737 C163.410326,175.944996 162.040839,175.549 160.346831,175.549 Z M193.231331,189.343 C194.529337,190.553006 195.425829,191.372498 195.920831,191.8015 C196.415833,192.230502 196.866829,192.554999 197.273831,192.775 C197.680833,192.995001 198.093329,193.105 198.511331,193.105 L198.511331,194.194 L197.455331,194.194 C196.487326,194.194 195.750334,194.1665 195.244331,194.1115 C194.738328,194.0565 194.215834,193.897001 193.676831,193.633 C193.137828,193.368999 192.538334,192.940003 191.878331,192.346 C191.262328,191.795997 190.514335,191.059005 189.634331,190.135 C188.688326,189.188995 187.945834,188.518002 187.406831,188.122 C186.867828,187.725998 186.268334,187.528 185.608331,187.528 C183.012318,187.484 180.85084,186.873506 179.123831,185.6965 C177.396822,184.519494 176.126335,183.023509 175.312331,181.2085 C174.498327,179.393491 174.091331,177.47401 174.091331,175.45 C174.091331,173.49199 174.525827,171.589009 175.394831,169.741 C176.263835,167.892991 177.561822,166.369506 179.288831,165.1705 C181.01584,163.971494 183.111319,163.372 185.575331,163.372 C188.105344,163.372 190.255822,163.971494 192.026831,165.1705 C193.79784,166.369506 195.123327,167.892991 196.003331,169.741 C196.883335,171.589009 197.323331,173.49199 197.323331,175.45 C197.323331,177.122008 196.993334,178.788492 196.333331,180.4495 C195.673328,182.110508 194.677838,183.551494 193.346831,184.7725 C192.015824,185.993506 190.40434,186.812998 188.512331,187.231 C189.414336,187.253 190.200828,187.395999 190.871831,187.66 C191.542834,187.924001 192.329326,188.484996 193.231331,189.343 Z M177.325331,174.856 C177.325331,176.594009 177.644328,178.337491 178.282331,180.0865 C178.920334,181.835509 179.888325,183.287494 181.186331,184.4425 C182.484337,185.597506 184.057322,186.175 185.905331,186.175 C187.62134,186.175 189.089825,185.685505 190.310831,184.7065 C191.531837,183.727495 192.455828,182.468008 193.082831,180.928 C193.709834,179.387992 194.023331,177.771008 194.023331,176.077 C194.023331,174.206991 193.682334,172.397509 193.000331,170.6485 C192.318328,168.899491 191.328337,167.469506 190.030331,166.3585 C188.732325,165.247494 187.21434,164.692 185.476331,164.692 C183.760322,164.692 182.286337,165.181495 181.054331,166.1605 C179.822325,167.139505 178.892834,168.409992 178.265831,169.972 C177.638828,171.534008 177.325331,173.161992 177.325331,174.856 Z M224.614331,163.372 C227.034343,163.372 229.256321,164.042993 231.280331,165.385 L231.115331,163.603 L232.897331,163.603 L232.897331,171.259 L231.709331,171.259 C231.48933,169.21299 230.768837,167.612506 229.547831,166.4575 C228.326825,165.302494 226.759341,164.725 224.845331,164.725 C223.283323,164.725 221.858837,165.159496 220.571831,166.0285 C219.284825,166.897504 218.267335,168.134992 217.519331,169.741 C216.771327,171.347008 216.397331,173.205989 216.397331,175.318 C216.397331,177.34201 216.793327,179.151492 217.585331,180.7465 C218.377335,182.341508 219.444324,183.584496 220.786331,184.4755 C222.128338,185.366504 223.613323,185.812 225.241331,185.812 C226.715338,185.812 228.134324,185.482003 229.498331,184.822 C230.862338,184.161997 231.984327,183.227006 232.864331,182.017 L233.722331,182.71 C232.446325,184.492009 230.983339,185.740496 229.333331,186.4555 C227.683323,187.170504 226.033339,187.528 224.383331,187.528 C222.22732,187.528 220.29684,187.011005 218.591831,185.977 C216.886822,184.942995 215.555836,183.535009 214.598831,181.753 C213.641826,179.970991 213.163331,177.991011 213.163331,175.813 C213.163331,173.656989 213.597827,171.633009 214.466831,169.741 C215.335835,167.848991 216.633822,166.314506 218.360831,165.1375 C220.08784,163.960494 222.172319,163.372 224.614331,163.372 Z M246.410831,169.972 C247.928839,169.972 249.325825,170.340496 250.601831,171.0775 C251.877837,171.814504 252.884327,172.820994 253.621331,174.097 C254.358335,175.373006 254.726831,176.791992 254.726831,178.354 C254.726831,180.026008 254.358335,181.565993 253.621331,182.974 C252.884327,184.382007 251.883337,185.492996 250.618331,186.307 C249.353325,187.121004 247.950839,187.528 246.410831,187.528 C244.892823,187.528 243.501337,187.170504 242.236331,186.4555 C240.971325,185.740496 239.970335,184.745006 239.233331,183.469 C238.496327,182.192994 238.127831,180.752008 238.127831,179.146 C238.127831,177.429991 238.490827,175.873507 239.216831,174.4765 C239.942835,173.079493 240.938325,171.979504 242.203331,171.1765 C243.468337,170.373496 244.870823,169.972 246.410831,169.972 Z M246.410831,171.226 C244.782823,171.226 243.556335,171.896993 242.731331,173.239 C241.906327,174.581007 241.493831,176.23099 241.493831,178.189 C241.493831,179.597007 241.686329,180.911494 242.071331,182.1325 C242.456333,183.353506 243.039327,184.337996 243.820331,185.086 C244.601335,185.834004 245.552825,186.208 246.674831,186.208 C248.280839,186.208 249.463327,185.548007 250.222331,184.228 C250.981335,182.907993 251.360831,181.26901 251.360831,179.311 C251.360831,177.088989 250.948335,175.186008 250.123331,173.602 C249.298327,172.017992 248.060839,171.226 246.410831,171.226 Z M279.163331,169.972 C281.099341,169.972 282.512827,170.560494 283.403831,171.7375 C284.294835,172.914506 284.718331,174.789987 284.674331,177.364 L284.641331,183.502 C284.641331,184.492005 284.597331,185.239997 284.509331,185.746 L286.588331,185.647 L286.588331,187 L279.856331,187 L279.856331,186.01 C280.494334,186.01 280.95083,185.850502 281.225831,185.5315 C281.500832,185.212498 281.665831,184.805502 281.720831,184.3105 C281.775831,183.815498 281.803331,183.040005 281.803331,181.984 L281.803331,177.364 C281.803331,175.471991 281.506334,174.058505 280.912331,173.1235 C280.318328,172.188495 279.383337,171.721 278.107331,171.721 C277.425328,171.721 276.737834,171.869499 276.044831,172.1665 C275.351828,172.463501 274.741334,172.853998 274.213331,173.338 C274.433332,174.020003 274.543331,174.822995 274.543331,175.747 L274.477331,183.502 C274.477331,184.492005 274.433331,185.239997 274.345331,185.746 L276.424331,185.647 L276.424331,187 L269.692331,187 L269.692331,186.01 C270.330334,186.01 270.78683,185.850502 271.061831,185.5315 C271.336832,185.212498 271.496331,184.816502 271.540331,184.3435 C271.584331,183.870498 271.617331,183.084005 271.639331,181.984 L271.672331,177.364 C271.694331,175.44999 271.419334,174.020005 270.847331,173.074 C270.275328,172.127995 269.362337,171.655 268.108331,171.655 C267.426328,171.655 266.749834,171.797999 266.078831,172.084 C265.407828,172.370001 264.830333,172.754998 264.346331,173.239 L264.379331,175.021 L264.379331,183.502 C264.379331,184.492005 264.335331,185.239997 264.247331,185.746 L266.326331,185.647 L266.326331,187 L259.594331,187 L259.594331,186.01 C260.232334,186.01 260.68883,185.850502 260.963831,185.5315 C261.238832,185.212498 261.403831,184.805502 261.458831,184.3105 C261.513831,183.815498 261.541331,183.040005 261.541331,181.984 L261.541331,174.46 C261.541331,173.535995 261.585331,172.821003 261.673331,172.315 L259.330331,172.447 L259.330331,171.061 C260.628337,171.061 261.519329,170.989501 262.003331,170.8465 C262.487333,170.703499 262.894329,170.478002 263.224331,170.17 L264.181331,170.17 C264.225331,170.500002 264.269331,171.082996 264.313331,171.919 C264.995334,171.324997 265.765327,170.852002 266.623331,170.5 C267.481335,170.147998 268.328327,169.972 269.164331,169.972 C270.242336,169.972 271.160827,170.164498 271.919831,170.5495 C272.678835,170.934502 273.267329,171.478996 273.685331,172.183 C274.477335,171.544997 275.362826,171.017002 276.341831,170.599 C277.320836,170.180998 278.261326,169.972 279.163331,169.972 Z M300.761831,169.972 C302.059837,169.972 303.258826,170.307497 304.358831,170.9785 C305.458837,171.649503 306.344328,172.606494 307.015331,173.8495 C307.686334,175.092506 308.021831,176.527992 308.021831,178.156 C308.021831,179.982009 307.636835,181.604493 306.866831,183.0235 C306.096827,184.442507 305.068337,185.547996 303.781331,186.34 C302.494325,187.132004 301.102838,187.528 299.606831,187.528 C298.088823,187.528 296.768837,187.165004 295.646831,186.439 L295.646831,191.917 C295.646831,192.907005 295.602831,193.654997 295.514831,194.161 L297.593831,194.062 L297.593831,195.415 L290.861831,195.415 L290.861831,194.425 C291.499834,194.425 291.95633,194.265502 292.231331,193.9465 C292.506332,193.627498 292.665831,193.231502 292.709831,192.7585 C292.753831,192.285498 292.786831,191.499006 292.808831,190.399 L292.874831,174.46 C292.874831,173.535995 292.918831,172.821003 293.006831,172.315 L290.663831,172.447 L290.663831,171.061 C291.961837,171.061 292.852829,170.989501 293.336831,170.8465 C293.820833,170.703499 294.216829,170.478002 294.524831,170.17 L295.514831,170.17 C295.602831,171.248005 295.646831,171.841999 295.646831,171.952 C296.306834,171.357997 297.098826,170.879502 298.022831,170.5165 C298.946836,170.153498 299.859826,169.972 300.761831,169.972 Z M299.573831,171.589 C298.847827,171.589 298.143834,171.764998 297.461831,172.117 C296.779828,172.469002 296.185834,172.908997 295.679831,173.437 C295.701831,173.591001 295.712831,174.261994 295.712831,175.45 L295.679831,184.921 C296.801837,185.779004 298.088824,186.208 299.540831,186.208 C300.574836,186.208 301.471327,185.889003 302.230331,185.251 C302.989335,184.612997 303.577829,183.722006 303.995831,182.578 C304.413833,181.433994 304.622831,180.136007 304.622831,178.684 C304.622831,176.70399 304.199335,175.026507 303.352331,173.6515 C302.505327,172.276493 301.245839,171.589 299.573831,171.589 Z M327.970331,182.644 C327.970331,183.920006 327.926331,184.953996 327.838331,185.746 L330.214331,185.614 L330.214331,187 L325.495331,187 C325.38533,186.317997 325.308331,185.658003 325.264331,185.02 C324.538327,185.746004 323.691336,186.345498 322.723331,186.8185 C321.755326,187.291502 320.809336,187.528 319.885331,187.528 C318.015322,187.528 316.645835,186.989005 315.776831,185.911 C314.907827,184.832995 314.473331,182.974013 314.473331,180.334 L314.473331,174.46 C314.473331,173.535995 314.517331,172.821003 314.605331,172.315 L312.328331,172.414 L312.328331,171.061 L313.351331,171.061 C314.209335,171.061 314.858329,170.984001 315.298331,170.83 C315.738333,170.675999 316.112329,170.456001 316.420331,170.17 L317.377331,170.17 L317.377331,180.235 C317.377331,182.17101 317.646828,183.589995 318.185831,184.492 C318.724834,185.394005 319.621325,185.845 320.875331,185.845 C321.689335,185.845 322.486827,185.603002 323.267831,185.119 C324.048835,184.634998 324.681329,184.030004 325.165331,183.304 L325.165331,174.823 C325.165331,173.788995 325.22033,172.953003 325.330331,172.315 L322.954331,172.414 L322.954331,171.061 L323.977331,171.061 C324.835335,171.061 325.484329,170.984001 325.924331,170.83 C326.364333,170.675999 326.738329,170.456001 327.046331,170.17 L328.003331,170.17 L327.970331,182.644 Z M339.371831,170.5 L344.915831,170.5 L344.915831,171.787 L339.371831,171.853 C339.349831,175.219017 339.333331,177.550994 339.322331,178.849 C339.311331,180.147006 339.305831,180.872999 339.305831,181.027 C339.305831,182.589008 339.492829,183.749496 339.866831,184.5085 C340.240833,185.267504 340.889826,185.647 341.813831,185.647 C342.385834,185.647 342.952328,185.471002 343.513331,185.119 C344.074334,184.766998 344.563829,184.283003 344.981831,183.667 L345.872831,184.393 C345.014827,185.669006 344.167835,186.510498 343.331831,186.9175 C342.495827,187.324502 341.681835,187.528 340.889831,187.528 C337.875816,187.528 336.379831,185.50402 336.401831,181.456 L336.467831,171.886 L333.926831,171.919 L333.926831,170.5 C334.982836,170.478 335.879327,169.999505 336.616331,169.0645 C337.353335,168.129495 337.897829,167.068006 338.249831,165.88 L339.371831,165.88 L339.371831,170.5 Z M357.769331,169.972 C359.023337,169.972 360.156326,170.246997 361.168331,170.797 C362.180336,171.347003 362.983328,172.166495 363.577331,173.2555 C364.171334,174.344505 364.468331,175.680992 364.468331,177.265 L352.852331,177.463 C352.830331,180.103013 353.264827,182.159993 354.155831,183.634 C355.046835,185.108007 356.427322,185.845 358.297331,185.845 C359.309336,185.845 360.348826,185.581003 361.415831,185.053 C362.482836,184.524997 363.302328,183.876004 363.874331,183.106 L364.666331,183.766 C363.830327,185.042006 362.746838,185.987997 361.415831,186.604 C360.084824,187.220003 358.781337,187.528 357.505331,187.528 C355.987323,187.528 354.617837,187.170504 353.396831,186.4555 C352.175825,185.740496 351.213335,184.717507 350.509331,183.3865 C349.805327,182.055493 349.453331,180.521009 349.453331,178.783 C349.453331,177.242992 349.805327,175.796507 350.509331,174.4435 C351.213335,173.090493 352.197825,172.007004 353.462831,171.193 C354.727837,170.378996 356.163323,169.972 357.769331,169.972 Z M357.802331,171.259 C355.074317,171.259 353.457334,172.864984 352.951331,176.077 L361.366331,176.077 C361.366331,174.756993 361.069334,173.624005 360.475331,172.678 C359.881328,171.731995 358.990337,171.259 357.802331,171.259 Z M379.763831,169.972 C380.423834,169.972 380.973829,170.147998 381.413831,170.5 C381.853833,170.852002 382.073831,171.368997 382.073831,172.051 C382.073831,172.403002 381.936332,172.754998 381.661331,173.107 C381.38633,173.459002 380.995834,173.635 380.489831,173.635 C380.005829,173.635 379.609833,173.453502 379.301831,173.0905 C378.993829,172.727498 378.872831,172.293003 378.938831,171.787 C378.102827,171.765 377.261335,172.083997 376.414331,172.744 C375.567327,173.404003 374.846834,174.283995 374.252831,175.384 L374.285831,183.502 C374.285831,184.492005 374.241831,185.239997 374.153831,185.746 L376.232831,185.647 L376.232831,187 L369.467831,187 L369.467831,186.01 C370.105834,186.01 370.56233,185.850502 370.837331,185.5315 C371.112332,185.212498 371.277331,184.805502 371.332331,184.3105 C371.387331,183.815498 371.414831,183.040005 371.414831,181.984 L371.414831,174.46 C371.414831,173.535995 371.458831,172.821003 371.546831,172.315 L369.203831,172.414 L369.203831,171.061 L370.226831,171.061 C371.062835,171.061 371.667829,170.989501 372.041831,170.8465 C372.415833,170.703499 372.767829,170.478002 373.097831,170.17 L374.054831,170.17 C374.142831,171.028004 374.197831,172.116993 374.219831,173.437 C374.769834,172.534995 375.556326,171.732004 376.579331,171.028 C377.602336,170.323996 378.663826,169.972 379.763831,169.972 Z" id="path-1"></path>
        <filter x="-2.4%" y="-6.8%" width="104.8%" height="119.1%" filterUnits="objectBoundingBox" id="filter-2">
            <feOffset dx="0" dy="2" in="SourceAlpha" result="shadowOffsetOuter1"></feOffset>
            <feGaussianBlur stdDeviation="2" in="shadowOffsetOuter1" result="shadowBlurOuter1"></feGaussianBlur>
            <feColorMatrix values="0 0 0 0 0   0 0 0 0 0   0 0 0 0 0  0 0 0 0.5 0" type="matrix" in="shadowBlurOuter1"></feColorMatrix>
        </filter>
        <path d="M60.996,56.808 C61.9560048,55.3679928 62.436,54.0240062 62.436,52.776 C62.436,51.5279938 62.0840035,50.5360037 61.38,49.8 C60.6759965,49.0639963 59.7480058,48.696 58.596,48.696 C57.4439942,48.696 56.5160035,48.9759972 55.812,49.536 C55.1079965,50.0960028 54.756,50.975994 54.756,52.176 C54.756,53.376006 55.5879917,55.5279845 57.252,58.632 C58.9160083,61.7360155 59.9719978,63.7359955 60.42,64.632 C61.6360061,67.0640122 62.244,69.4159886 62.244,71.688 C62.244,74.5360142 61.2120103,76.8479911 59.148,78.624 C57.0839897,80.4000089 54.652014,81.288 51.852,81.288 C49.051986,81.288 46.852008,80.4160087 45.252,78.672 C43.651992,76.9279913 42.852,74.8880117 42.852,72.552 C42.852,68.2319784 45.5239733,64.6640141 50.868,61.848 C48.6919891,57.5599786 47.604,54.5680085 47.604,52.872 C47.604,50.5039882 48.5559905,48.4960082 50.46,46.848 C52.3640095,45.1999918 54.6999862,44.376 57.468,44.376 C60.2360138,44.376 62.3559926,45.079993 63.828,46.488 C65.3000074,47.896007 66.036,49.6879891 66.036,51.864 C66.036,53.3040072 65.5560048,54.9519907 64.596,56.808 L60.996,56.808 Z M48.42,75.528 C49.2840043,76.4560046 50.3319938,76.92 51.564,76.92 C52.7960062,76.92 53.7559966,76.5600036 54.444,75.84 C55.1320034,75.1199964 55.476,74.056007 55.476,72.648 C55.476,71.3679936 54.980005,69.8000093 53.988,67.944 C53.8599994,67.6879987 53.6200018,67.2160034 53.268,66.528 C52.9159982,65.8399966 52.6600008,65.3520014 52.5,65.064 C48.9159821,66.9200093 47.124,69.2559859 47.124,72.072 C47.124,73.5120072 47.5559957,74.6639957 48.42,75.528 Z M89.476,81 L91.3,65.064 C91.3,64.1679955 91.0840022,63.424003 90.652,62.832 C90.2199978,62.239997 89.4600054,61.944 88.372,61.944 C87.2839946,61.944 86.3880035,62.4639948 85.684,63.504 C84.9799965,64.5440052 84.532001,65.6399942 84.34,66.792 C83.2199944,74.7600398 82.5960006,79.4959925 82.468,81 L76.036,81 L78.676,58.44 C80.0200067,58.0879982 81.0439965,57.912 81.748,57.912 C83.7640101,57.912 84.867999,58.5839933 85.06,59.928 C86.6280078,58.5839933 88.3399907,57.912 90.196,57.912 C93.9080186,57.912 96.2759949,59.015989 97.3,61.224 C98.8680078,58.9839888 101.107985,57.864 104.02,57.864 C106.164011,57.864 107.859994,58.4159945 109.108,59.52 C110.356006,60.6240055 110.98,62.0079917 110.98,63.672 C110.98,64.1520024 110.884001,64.9999939 110.692,66.216 C109.955996,71.016024 109.588,73.8319958 109.588,74.664 C109.588,76.1680075 110.083995,76.92 111.076,76.92 C111.908004,76.92 112.795995,76.3680055 113.74,75.264 C114.684005,74.1599945 115.443997,72.4560115 116.02,70.152 C117.108005,71.3040058 117.763999,72.2159966 117.988,72.888 C116.323992,78.4560278 113.380021,81.24 109.156,81.24 C107.17199,81.24 105.700005,80.6320061 104.74,79.416 C103.779995,78.1999939 103.3,76.9200067 103.3,75.576 L104.452,64.968 C104.452,64.1039957 104.228002,63.3840029 103.78,62.808 C103.331998,62.2319971 102.620005,61.944 101.644,61.944 C100.667995,61.944 99.8120037,62.3119963 99.076,63.048 C98.3399963,63.7840037 97.8280014,64.7279942 97.54,65.88 C96.5799952,74.0080406 95.9560014,79.0479902 95.668,81 L89.476,81 Z M137.108,57.912 C140.052015,57.912 142.50799,58.8559906 144.476,60.744 C146.44401,62.6320094 147.428,64.9359864 147.428,67.656 C147.428,71.7840206 146.220012,75.0879876 143.804,77.568 C141.387988,80.0480124 138.468017,81.288 135.044,81.288 C131.619983,81.288 128.90801,80.3120098 126.908,78.36 C124.90799,76.4079902 123.908,73.9920144 123.908,71.112 C123.908,67.0799798 125.139988,63.8800118 127.604,61.512 C130.100012,59.111988 133.267981,57.912 137.108,57.912 Z M136.148,61.8 C134.643992,61.8 133.380005,62.6639914 132.356,64.392 C131.331995,66.1200086 130.772,68.2959869 130.676,70.92 C130.676,72.7760093 131.051996,74.3119939 131.804,75.528 C132.556004,76.7440061 133.699992,77.352 135.236,77.352 C136.772008,77.352 138.059995,76.5040085 139.1,74.808 C140.140005,73.1119915 140.66,71.1760109 140.66,69 C140.66,66.8239891 140.292004,65.0960064 139.556,63.816 C138.819996,62.4719933 137.684008,61.8 136.148,61.8 Z M181.236,63.72 C181.236,67.0480166 179.25202,69.5919912 175.284,71.352 C175.38,71.9280029 175.523999,72.615996 175.716,73.416 C176.292003,75.7840118 177.251993,76.9999997 178.596,77.064 L178.884,77.064 C181.444013,77.064 183.347994,74.8080226 184.596,70.296 C185.268003,70.904003 185.907997,71.8159939 186.516,73.032 C186.067998,74.7600086 185.436004,76.2159941 184.62,77.4 C183.803996,78.5840059 182.916005,79.4319974 181.956,79.944 C180.259992,80.8400045 178.660008,81.288 177.156,81.288 C173.635982,81.288 171.172007,79.3200197 169.764,75.384 C169.219997,73.8159922 168.852001,72.2160082 168.66,70.584 C170.484009,70.1359978 171.923995,69.3920052 172.98,68.352 C174.036005,67.3119948 174.564,66.2000059 174.564,65.016 C174.564,62.9679898 173.54001,61.944 171.492,61.944 C170.371994,61.944 169.412004,62.3679958 168.612,63.216 C167.811996,64.0640042 167.284001,65.0799941 167.028,66.264 C166.835999,67.8960082 166.524002,70.4639825 166.092,73.968 C165.659998,77.4720175 165.380001,79.8159941 165.252,81 L158.868,81 C161.172012,61.3839019 162.563998,49.3360224 163.044,44.856 C163.716003,44.5999987 164.627994,44.472 165.78,44.472 C168.276012,44.472 169.524,45.2079926 169.524,46.68 L169.524,46.968 C168.883997,52.760029 168.292003,57.1919846 167.748,60.264 C169.508009,58.6319918 171.715987,57.816 174.372,57.816 C176.35601,57.816 177.995994,58.3279949 179.292,59.352 C180.588006,60.3760051 181.236,61.8319906 181.236,63.72 Z M202.228,70.248 C204.21201,69.8319979 205.691995,69.0320059 206.668,67.848 C207.644005,66.6639941 208.132,65.5200055 208.132,64.416 C208.132,63.3119945 207.836003,62.560002 207.244,62.16 C206.651997,61.759998 206.004004,61.56 205.3,61.56 C203.795992,61.56 202.476006,62.3999916 201.34,64.08 C200.203994,65.7600084 199.636,67.7599884 199.636,70.08 C199.636,72.4000116 200.187994,74.1279943 201.292,75.264 C202.396006,76.4000057 203.763992,76.968 205.396,76.968 C207.796012,76.968 210.099989,76.1360083 212.308,74.472 C214.516011,72.8079917 216.307993,70.6320134 217.684,67.944 C218.388004,68.6160034 219.027997,69.447995 219.604,70.44 C218.547995,72.840012 216.676013,75.1919885 213.988,77.496 C212.643993,78.6160056 211.052009,79.5279965 209.212,80.232 C207.371991,80.9360035 205.47601,81.288 203.524,81.288 C200.323984,81.288 197.796009,80.3120098 195.94,78.36 C193.95599,76.2479894 192.964,73.5440165 192.964,70.248 C192.964,66.9519835 194.203988,64.0720123 196.684,61.608 C199.164012,59.1439877 202.131983,57.912 205.588,57.912 C208.052012,57.912 210.051992,58.4479946 211.588,59.52 C213.124008,60.5920054 213.908,62.0399909 213.94,63.864 C213.94,66.3280123 212.95601,68.3279923 210.988,69.864 C209.01999,71.4000077 206.324017,72.471997 202.9,73.08 L202.228,70.248 Z M250.916,45.576 C251.108001,45.3199987 251.723995,45.0720012 252.764,44.832 C253.804005,44.5919988 254.787995,44.472 255.716,44.472 C256.644005,44.472 257.411997,44.5999987 258.02,44.856 L253.316,81 L246.788,81 L248.66,64.776 L248.036,64.968 C245.091985,65.8320043 242.420012,66.6799958 240.02,67.512 L239.348,72.792 C238.579996,78.4560283 235.924023,81.288 231.38,81.288 C229.747992,81.288 228.484004,80.8000049 227.588,79.824 C226.691996,78.8479951 226.244,77.5920077 226.244,76.056 C226.244,72.6319829 228.659976,69.5440138 233.492,66.792 L235.94,45.96 C236.548003,45.5439979 237.347995,45.1920014 238.34,44.904 C239.332005,44.6159986 240.291995,44.472 241.22,44.472 C242.148005,44.472 242.755999,44.4879998 243.044,44.52 L240.548,63.624 C242.50001,62.9199965 244.963985,62.168004 247.94,61.368 L249.092,61.08 L250.916,45.576 Z M229.604,75.336 C229.604,76.3600051 230.067995,76.872 230.996,76.872 C231.508003,76.872 231.843999,76.7200015 232.004,76.416 C232.164001,76.1119985 232.284,75.856001 232.364,75.648 C232.444,75.439999 232.516,75.1600018 232.58,74.808 C232.644,74.4559982 232.692,74.1440014 232.724,73.872 C232.756,73.5999986 232.788,73.2400022 232.82,72.792 C232.852,72.3439978 232.884,71.9920013 232.916,71.736 L233.012,71.016 C230.739989,72.5840078 229.604,74.0239934 229.604,75.336 Z M283.044,57.912 C285.988015,57.912 288.44399,58.8559906 290.412,60.744 C292.38001,62.6320094 293.364,64.9359864 293.364,67.656 C293.364,71.7840206 292.156012,75.0879876 289.74,77.568 C287.323988,80.0480124 284.404017,81.288 280.98,81.288 C277.555983,81.288 274.84401,80.3120098 272.844,78.36 C270.84399,76.4079902 269.844,73.9920144 269.844,71.112 C269.844,67.0799798 271.075988,63.8800118 273.54,61.512 C276.036012,59.111988 279.203981,57.912 283.044,57.912 Z M282.084,61.8 C280.579992,61.8 279.316005,62.6639914 278.292,64.392 C277.267995,66.1200086 276.708,68.2959869 276.612,70.92 C276.612,72.7760093 276.987996,74.3119939 277.74,75.528 C278.492004,76.7440061 279.635992,77.352 281.172,77.352 C282.708008,77.352 283.995995,76.5040085 285.036,74.808 C286.076005,73.1119915 286.596,71.1760109 286.596,69 C286.596,66.8239891 286.228004,65.0960064 285.492,63.816 C284.755996,62.4719933 283.620008,61.8 282.084,61.8 Z M326.836,58.392 C325.523993,68.7600518 324.868,74.2799966 324.868,74.952 C324.868,76.2320064 325.331995,76.872 326.26,76.872 C327.092004,76.872 327.995995,76.3040057 328.972,75.168 C329.948005,74.0319943 330.723997,72.3280114 331.3,70.056 C332.356005,71.2080058 332.995999,72.1039968 333.22,72.744 C332.483996,75.8480155 331.316008,78.0399936 329.716,79.32 C328.115992,80.6000064 326.468008,81.24 324.772,81.24 C321.987986,81.24 320.116005,80.1680107 319.156,78.024 C317.491992,80.1680107 315.268014,81.24 312.484,81.24 C310.179988,81.24 308.404006,80.6640058 307.156,79.512 C305.907994,78.3599942 305.284,76.8560093 305.284,75 C305.284,74.5519978 305.363999,73.7680056 305.524,72.648 C306.260004,66.6959702 306.819998,61.9600176 307.204,58.44 C308.196005,58.0879982 309.107996,57.912 309.94,57.912 C310.772004,57.912 311.395998,57.9439997 311.812,58.008 C312.228002,58.0720003 312.627998,58.3119979 313.012,58.728 C313.396002,59.1440021 313.588,59.7359962 313.588,60.504 L312.004,72.744 C311.94,73.1280019 311.908,73.4799984 311.908,73.8 C311.908,75.6880094 312.771991,76.632 314.5,76.632 C316.100008,76.632 317.427995,75.8480078 318.484,74.28 C318.484,73.9279982 318.516,73.3680038 318.58,72.6 L320.164,59.832 C320.388001,59.2879973 320.867996,58.8320018 321.604,58.464 C322.340004,58.0959982 323.259994,57.912 324.364,57.912 C325.468006,57.912 326.291997,58.0719984 326.836,58.392 Z M359.828,66.312 C362.356013,68.1680093 363.62,70.3599874 363.62,72.888 C363.62,75.4160126 362.62801,77.4479923 360.644,78.984 C358.65999,80.5200077 356.164015,81.288 353.156,81.288 C351.20399,81.288 349.580006,80.8000049 348.284,79.824 C346.987994,78.8479951 346.34,77.6400072 346.34,76.2 C346.34,74.7599928 346.819995,73.6160042 347.78,72.768 C348.740005,71.9199958 349.939993,71.400001 351.38,71.208 C350.707997,72.1680048 350.372,73.0879956 350.372,73.968 C350.372,74.8480044 350.675997,75.5599973 351.284,76.104 C351.892003,76.6480027 352.659995,76.92 353.588,76.92 C354.516005,76.92 355.283997,76.5760034 355.892,75.888 C356.500003,75.1999966 356.804,74.4080045 356.804,73.512 C356.804,72.0399926 356.116007,70.7280058 354.74,69.576 C353.907996,68.9039966 353.012005,68.272003 352.052,67.68 C351.091995,67.087997 350.58,66.7760002 350.516,66.744 C350.387999,66.6479995 350.260001,66.5680003 350.132,66.504 C349.555997,67.1760034 348.724005,68.0959942 347.636,69.264 C346.547995,70.4320058 345.684003,71.3679965 345.044,72.072 C343.251991,74.0240098 342.244001,75.6559934 342.02,76.968 C341.956,77.2240013 341.924,77.7119964 341.924,78.432 C341.924,79.1520036 342.139998,79.8959962 342.572,80.664 C343.004002,81.4320038 343.523997,82.0079981 344.132,82.392 C344.740003,82.7760019 345.339997,83.0879988 345.932,83.328 C346.524003,83.5680012 347.035998,83.7359995 347.468,83.832 C347.900002,83.9280005 348.116,83.9919998 348.116,84.024 C348.116,84.2480011 347.764004,84.5039986 347.06,84.792 C345.747993,85.2720024 344.380007,85.512 342.956,85.512 C341.531993,85.512 340.148007,85.0000051 338.804,83.976 C336.979991,82.567993 336.068,80.6960117 336.068,78.36 C336.068,76.9199928 336.435996,75.496007 337.172,74.088 C338.484007,71.5919875 341.555976,68.1680218 346.388,63.816 C345.203994,62.6319941 344.612,61.3680067 344.612,60.024 C344.612,58.6799933 345.115995,57.5440046 346.124,56.616 C347.132005,55.6879954 348.323993,55.224 349.7,55.224 C350.948006,55.224 352.035995,55.719995 352.964,56.712 C353.572003,57.3840034 353.876,58.2319949 353.876,59.256 C353.876,60.2800051 353.540003,61.4319936 352.868,62.712 C356.292017,64.2480077 358.611994,65.4479957 359.828,66.312 Z M349.412,60.888 C350.180004,60.087996 350.564,59.5120018 350.564,59.16 C350.564,58.359996 350.212004,57.9280003 349.508,57.864 C348.707996,57.864 348.308,58.3119955 348.308,59.208 C348.308,59.7520027 348.675996,60.3119971 349.412,60.888 Z M383.412,70.248 C385.39601,69.8319979 386.875995,69.0320059 387.852,67.848 C388.828005,66.6639941 389.316,65.5200055 389.316,64.416 C389.316,63.3119945 389.020003,62.560002 388.428,62.16 C387.835997,61.759998 387.188004,61.56 386.484,61.56 C384.979992,61.56 383.660006,62.3999916 382.524,64.08 C381.387994,65.7600084 380.82,67.7599884 380.82,70.08 C380.82,72.4000116 381.371994,74.1279943 382.476,75.264 C383.580006,76.4000057 384.947992,76.968 386.58,76.968 C388.980012,76.968 391.283989,76.1360083 393.492,74.472 C395.700011,72.8079917 397.491993,70.6320134 398.868,67.944 C399.572004,68.6160034 400.211997,69.447995 400.788,70.44 C399.731995,72.840012 397.860013,75.1919885 395.172,77.496 C393.827993,78.6160056 392.236009,79.5279965 390.396,80.232 C388.555991,80.9360035 386.66001,81.288 384.708,81.288 C381.507984,81.288 378.980009,80.3120098 377.124,78.36 C375.13999,76.2479894 374.148,73.5440165 374.148,70.248 C374.148,66.9519835 375.387988,64.0720123 377.868,61.608 C380.348012,59.1439877 383.315983,57.912 386.772,57.912 C389.236012,57.912 391.235992,58.4479946 392.772,59.52 C394.308008,60.5920054 395.092,62.0399909 395.124,63.864 C395.124,66.3280123 394.14001,68.3279923 392.172,69.864 C390.20399,71.4000077 387.508017,72.471997 384.084,73.08 L383.412,70.248 Z M406.18,54.84 C406.18,51.7679846 407.539986,49.2720096 410.26,47.352 C412.980014,45.4319904 416.611977,44.472 421.156,44.472 C423.876014,44.472 426.25999,44.7839969 428.308,45.408 C430.35601,46.0320031 431.923995,46.8879946 433.012,47.976 C435.188011,50.1200107 436.276,52.5839861 436.276,55.368 C436.276,58.1520139 435.164011,60.4799906 432.94,62.352 C430.715989,64.2240094 427.876017,65.16 424.42,65.16 C424.035998,65.16 423.460004,65.1280003 422.692,65.064 L423.124,61.56 C427.380021,61.56 429.508,59.56002 429.508,55.56 C429.508,53.7039907 428.724008,52.1360064 427.156,50.856 C425.523992,49.5119933 423.092016,48.84 419.86,48.84 C416.627984,48.84 414.068009,49.6719917 412.18,51.336 C411.059994,52.2960048 410.5,53.3359944 410.5,54.456 C410.5,56.5680106 411.763987,57.7679986 414.292,58.056 L413.716,61.608 C411.507989,61.5119995 409.700007,60.8080066 408.292,59.496 C406.883993,58.1839934 406.18,56.632009 406.18,54.84 Z M423.076,51.336 L420.964,65.064 C425.02802,67.0160098 427.06,69.895981 427.06,73.704 C427.06,76.4880139 426.332007,78.4479943 424.876,79.584 C423.419993,80.7200057 421.66801,81.288 419.62,81.288 C417.57199,81.288 415.972006,80.7600053 414.82,79.704 C413.667994,78.6479947 413.092,77.224009 413.092,75.432 C413.092,75.0159979 413.108,74.6960011 413.14,74.472 L416.02,52.248 C417.684008,51.447996 419.091994,51.048 420.244,51.048 C421.396006,51.048 422.339996,51.143999 423.076,51.336 Z M421.012,76.92 C421.780004,76.92 422.443997,76.6480027 423.004,76.104 C423.564003,75.5599973 423.844,74.6480064 423.844,73.368 C423.844,71.0959886 422.756011,69.3040066 420.58,67.992 C420.067997,71.7360187 419.812,73.9839962 419.812,74.736 C419.812,75.4880038 419.931999,76.0399982 420.172,76.392 C420.412001,76.7440018 420.691998,76.92 421.012,76.92 Z M450.212,45.672 C450.948004,44.9039962 451.843995,44.52 452.9,44.52 C453.956005,44.52 454.859996,44.8959962 455.612,45.648 C456.364004,46.4000038 456.74,47.3039947 456.74,48.36 C456.74,49.4160053 456.364004,50.3119963 455.612,51.048 C454.859996,51.7840037 453.956005,52.152 452.9,52.152 C451.843995,52.152 450.948004,51.7840037 450.212,51.048 C449.475996,50.3119963 449.108,49.4160053 449.108,48.36 C449.108,47.3039947 449.475996,46.4080037 450.212,45.672 Z M448.244,59.736 C448.564002,59.1599971 449.171996,58.7200015 450.068,58.416 C450.964004,58.1119985 451.851996,57.96 452.732,57.96 C453.612004,57.96 454.387997,58.0719989 455.06,58.296 C453.811994,67.9280482 453.188,72.7919995 453.188,72.888 C453.027999,73.5280032 452.948,74.0639978 452.948,74.496 C452.948,74.9280022 452.98,75.3039984 453.044,75.624 C453.172001,76.4560042 453.755995,76.872 454.796,76.872 C455.836005,76.872 456.795996,76.1920068 457.676,74.832 C458.556004,73.4719932 459.219998,71.9280086 459.668,70.2 C459.892001,70.3280006 460.243998,70.7119968 460.724,71.352 C461.204002,71.9920032 461.492,72.4719984 461.588,72.792 C460.947997,75.3520128 459.860008,77.4159922 458.324,78.984 C456.787992,80.5520078 454.948011,81.336 452.804,81.336 C450.659989,81.336 449.068005,80.8080053 448.028,79.752 C446.987995,78.6959947 446.468,77.3360083 446.468,75.672 C446.468,75.3199982 446.484,74.9520019 446.516,74.568 L448.244,59.736 Z" id="path-3"></path>
        <filter x="-1.7%" y="-12.2%" width="103.3%" height="134.0%" filterUnits="objectBoundingBox" id="filter-4">
            <feOffset dx="0" dy="2" in="SourceAlpha" result="shadowOffsetOuter1"></feOffset>
            <feGaussianBlur stdDeviation="2" in="shadowOffsetOuter1" result="shadowBlurOuter1"></feGaussianBlur>
            <feColorMatrix values="0 0 0 0 0   0 0 0 0 0   0 0 0 0 0  0 0 0 0.5 0" type="matrix" in="shadowBlurOuter1"></feColorMatrix>
        </filter>
    </defs>
    <g id="Rect2x1" stroke="none" stroke-width="1" fill="none" fill-rule="evenodd">
        <rect fill="#DC4A36" x="0" y="0" width="512" height="256"></rect>
        <g id="Group" opacity="0.44" transform="translate(-292.000000, -69.000000)" fill="#F1F1F1" fill-opacity="0.3">
            <rect id="Rectangle" transform="translate(548.500000, 197.500000) rotate(-45.000000) translate(-548.500000, -197.500000) " x="409" y="58" width="279" height="279"></rect>
            <rect id="Rectangle" transform="translate(197.282792, 197.282792) rotate(-45.000000) translate(-197.282792, -197.282792) " x="57.782792" y="57.782792" width="279" height="279"></rect>
            <rect id="Rectangle" transform="translate(899.282792, 197.282792) rotate(-45.000000) translate(-899.282792, -197.282792) " x="759.782792" y="57.782792" width="279" height="279"></rect>
        </g>
        <g id="The-Open-Source-BBQ">
            <use fill="black" fill-opacity="1" filter="url(#filter-2)" xlink:href="#path-1"></use>
            <use fill="#FDF9F0" fill-rule="evenodd" xlink:href="#path-1"></use>
        </g>
        <g id="SmokeHousePi">
            <use fill="black" fill-opacity="1" filter="url(#filter-4)" xlink:href="#path-3"></use>
            <use fill="#FDF9F0" fill-rule="evenodd" xlink:href="#path-3"></use>
        </g>
    </g>
</svg>