<?xml version="1.0" encoding="UTF-8"?>
<svg width="512px" height="128px" viewBox="0 0 512 128" version="1.1" xmlns="http://www.w3.org/2000/svg" xmlns:xlink="http://www.w3.org/1999/xlink">
    <!-- Generator: Sketch 52.6 (67491) - http://www.bohemiancoding.com/sketch -->
    <title>Rect4x1</title>
    <desc>Created with Sketch.</desc>
    <defs>
        <path d="M51.0315231,40.28 C52.1315286,38.6299918 52.6815231,37.0900071 52.6815231,35.66 C52.6815231,34.2299929 52.2781938,33.0933376 51.4715231,32.25 C50.6648524,31.4066624 49.6015297,30.985 48.2815231,30.985 C46.9615165,30.985 45.8981938,31.3058301 45.0915231,31.9475 C44.2848524,32.5891699 43.8815231,33.5974931 43.8815231,34.9725 C43.8815231,36.3475069 44.8348469,38.8133155 46.7415231,42.37 C48.6481993,45.9266844 49.8581872,48.2183282 50.3715231,49.245 C51.7648634,52.0316806 52.4615231,54.7266536 52.4615231,57.33 C52.4615231,60.5933497 51.2790349,63.2424898 48.9140231,65.2775 C46.5490113,67.3125102 43.7623725,68.33 40.5540231,68.33 C37.3456737,68.33 34.8248656,67.3308433 32.9915231,65.3325 C31.1581806,63.3341567 30.2415231,60.9966801 30.2415231,58.32 C30.2415231,53.3699752 33.3031591,49.2816828 39.4265231,46.055 C36.9331773,41.1416421 35.6865231,37.713343 35.6865231,35.77 C35.6865231,33.0566531 36.7773455,30.7558428 38.9590231,28.8675 C41.1407007,26.9791572 43.8173406,26.035 46.9890231,26.035 C50.1607056,26.035 52.589848,26.8416586 54.2765231,28.455 C55.9631982,30.0683414 56.8065231,32.1216542 56.8065231,34.615 C56.8065231,36.2650083 56.2565286,38.1533227 55.1565231,40.28 L51.0315231,40.28 Z M36.6215231,61.73 C37.611528,62.7933386 38.8123494,63.325 40.2240231,63.325 C41.6356968,63.325 42.7356858,62.9125041 43.5240231,62.0875 C44.3123604,61.2624959 44.7065231,60.0433414 44.7065231,58.43 C44.7065231,56.963326 44.1381954,55.1666773 43.0015231,53.04 C42.8548557,52.7466652 42.5798584,52.2058373 42.1765231,51.4175 C41.7731877,50.6291627 41.4798573,50.0700017 41.2965231,49.74 C37.1898359,51.8666773 35.1365231,54.5433172 35.1365231,57.77 C35.1365231,59.4200083 35.6315181,60.7399951 36.6215231,61.73 Z M81.1600095,68 L83.2500095,49.74 C83.2500095,48.7133282 83.002512,47.8608367 82.5075095,47.1825 C82.0125071,46.5041633 81.1416824,46.165 79.8950095,46.165 C78.6483366,46.165 77.6216802,46.7608274 76.8150095,47.9525 C76.0083388,49.1441726 75.4950106,50.3999934 75.2750095,51.72 C73.9916698,60.8500456 73.2766769,66.276658 73.1300095,68 L65.7600095,68 L68.7850095,42.15 C70.3250172,41.7466646 71.4983388,41.545 72.3050095,41.545 C74.6150211,41.545 75.8800084,42.3149923 76.1000095,43.855 C77.8966852,42.3149923 79.8583322,41.545 81.9850095,41.545 C86.2383641,41.545 88.9516703,42.8099874 90.1250095,45.34 C91.9216852,42.7733205 94.4883262,41.49 97.8250095,41.49 C100.281688,41.49 102.225002,42.1224937 103.65501,43.3875 C105.085017,44.6525063 105.80001,46.2383238 105.80001,48.145 C105.80001,48.6950028 105.690011,49.6666597 105.47001,51.06 C104.626672,56.5600275 104.20501,59.7866619 104.20501,60.74 C104.20501,62.463342 104.773337,63.325 105.91001,63.325 C106.863348,63.325 107.880837,62.6925063 108.96251,61.4275 C110.044182,60.1624937 110.915006,58.2100132 111.57501,55.57 C112.821682,56.8900066 113.573342,57.9349961 113.83001,58.705 C111.923333,65.0850319 108.550034,68.275 103.71001,68.275 C101.436665,68.275 99.750015,67.5783403 98.6500095,66.185 C97.550004,64.7916597 97.0000095,63.3250077 97.0000095,61.785 L98.3200095,49.63 C98.3200095,48.639995 98.0633454,47.8150033 97.5500095,47.155 C97.0366736,46.4949967 96.2208485,46.165 95.1025095,46.165 C93.9841706,46.165 93.0033471,46.5866624 92.1600095,47.43 C91.316672,48.2733376 90.7300112,49.3549934 90.4000095,50.675 C89.300004,59.9883799 88.5850112,65.7633221 88.2550095,68 L81.1600095,68 Z M133.233496,41.545 C136.606846,41.545 139.420985,42.6266559 141.675996,44.79 C143.931007,46.9533441 145.058496,49.5933177 145.058496,52.71 C145.058496,57.4400237 143.674343,61.2258191 140.905996,64.0675 C138.137649,66.9091809 134.791849,68.33 130.868496,68.33 C126.945143,68.33 123.837674,67.2116779 121.545996,64.975 C119.254318,62.7383222 118.108496,59.9700165 118.108496,56.67 C118.108496,52.0499769 119.520149,48.3833469 122.343496,45.67 C125.20351,42.9199863 128.833474,41.545 133.233496,41.545 Z M132.133496,46 C130.410154,46 128.961835,46.9899901 127.788496,48.97 C126.615157,50.9500099 125.973497,53.4433183 125.863496,56.45 C125.863496,58.5766773 126.294325,60.3366597 127.155996,61.73 C128.017667,63.1233403 129.328487,63.82 131.088496,63.82 C132.848505,63.82 134.324323,62.8483431 135.515996,60.905 C136.707669,58.961657 137.303496,56.7433458 137.303496,54.25 C137.303496,51.7566542 136.881834,49.776674 136.038496,48.31 C135.195158,46.7699923 133.893505,46 132.133496,46 Z M181.291982,48.2 C181.291982,52.0133524 179.018672,54.9283233 174.471982,56.945 C174.581983,57.6050033 174.746981,58.3933288 174.966982,59.31 C175.626986,62.0233469 176.726975,63.4166663 178.266982,63.49 L178.596982,63.49 C181.53033,63.49 183.711975,60.9050259 185.141982,55.735 C185.911986,56.4316702 186.645312,57.4766597 187.341982,58.87 C186.828647,60.8500099 186.104487,62.5183265 185.169482,63.875 C184.234478,65.2316735 183.216988,66.2033304 182.116982,66.79 C180.173639,67.8166718 178.340324,68.33 176.616982,68.33 C172.583629,68.33 169.760324,66.0750225 168.146982,61.565 C167.523646,59.7683244 167.101984,57.9350094 166.881982,56.065 C168.971993,55.5516641 170.621976,54.6991726 171.831982,53.5075 C173.041988,52.3158274 173.646982,51.0416735 173.646982,49.685 C173.646982,47.3383216 172.473661,46.165 170.126982,46.165 C168.843643,46.165 167.743654,46.6508285 166.826982,47.6225 C165.910311,48.5941715 165.305317,49.7583265 165.011982,51.115 C164.791981,52.9850093 164.434485,55.9274799 163.939482,59.9425 C163.44448,63.9575201 163.12365,66.6433265 162.976982,68 L155.661982,68 C158.301996,45.5232209 159.89698,31.718359 160.446982,26.585 C161.216986,26.2916652 162.261976,26.145 163.581982,26.145 C166.441997,26.145 167.871982,26.9883249 167.871982,28.675 L167.871982,29.005 C167.138645,35.6416999 166.460319,40.7199824 165.836982,44.24 C167.853659,42.3699906 170.383634,41.435 173.426982,41.435 C175.700327,41.435 177.579475,42.0216608 179.064482,43.195 C180.54949,44.3683392 181.291982,46.0366559 181.291982,48.2 Z M202.840469,55.68 C205.113814,55.203331 206.80963,54.2866735 207.927969,52.93 C209.046308,51.5733265 209.605469,50.2625063 209.605469,48.9975 C209.605469,47.7324937 209.266306,46.8708356 208.587969,46.4125 C207.909632,45.9541644 207.16714,45.725 206.360469,45.725 C204.637127,45.725 203.124642,46.6874904 201.822969,48.6125 C200.521296,50.5375096 199.870469,52.8291534 199.870469,55.4875 C199.870469,58.1458466 200.502963,60.1258268 201.767969,61.4275 C203.032975,62.7291732 204.60046,63.38 206.470469,63.38 C209.220483,63.38 211.860456,62.4266762 214.390469,60.52 C216.920482,58.6133238 218.973794,56.1200154 220.550469,53.04 C221.35714,53.8100039 222.090466,54.7633277 222.750469,55.9 C221.540463,58.6500137 219.395484,61.3449868 216.315469,63.985 C214.775461,65.2683397 212.951313,66.3133293 210.842969,67.12 C208.734625,67.9266707 206.562147,68.33 204.325469,68.33 C200.658784,68.33 197.762146,67.2116779 195.635469,64.975 C193.362124,62.5549879 192.225469,59.4566856 192.225469,55.68 C192.225469,51.9033144 193.646288,48.6033475 196.487969,45.78 C199.32965,42.9566526 202.730449,41.545 206.690469,41.545 C209.513816,41.545 211.80546,42.1591605 213.565469,43.3875 C215.325478,44.6158395 216.223802,46.2749896 216.260469,48.365 C216.260469,51.1883475 215.13298,53.4799912 212.877969,55.24 C210.622958,57.0000088 207.533822,58.2283299 203.610469,58.925 L202.840469,55.68 Z M256.123955,27.41 C256.343956,27.1166652 257.049783,26.8325014 258.241455,26.5575 C259.433128,26.2824986 260.560617,26.145 261.623955,26.145 C262.687294,26.145 263.567285,26.2916652 264.263955,26.585 L258.873955,68 L251.393955,68 L253.538955,49.41 L252.823955,49.63 C249.450605,50.6200049 246.388969,51.5916619 243.638955,52.545 L242.868955,58.595 C241.988951,65.0850324 238.945648,68.33 233.738955,68.33 C231.868946,68.33 230.420627,67.7708389 229.393955,66.6525 C228.367284,65.5341611 227.853955,64.0950088 227.853955,62.335 C227.853955,58.411647 230.622261,54.8733491 236.158955,51.72 L238.963955,27.85 C239.660625,27.373331 240.577283,26.9700017 241.713955,26.64 C242.850628,26.3099984 243.950617,26.145 245.013955,26.145 C246.077294,26.145 246.773954,26.1633331 247.103955,26.2 L244.243955,48.09 C246.480633,47.2833293 249.303938,46.4216712 252.713955,45.505 L254.033955,45.175 L256.123955,27.41 Z M231.703955,61.51 C231.703955,62.6833392 232.235617,63.27 233.298955,63.27 C233.885625,63.27 234.270621,63.0958351 234.453955,62.7475 C234.63729,62.3991649 234.774788,62.1058345 234.866455,61.8675 C234.958122,61.6291655 235.040622,61.3083354 235.113955,60.905 C235.187289,60.5016647 235.242288,60.1441682 235.278955,59.8325 C235.315622,59.5208318 235.352288,59.1083359 235.388955,58.595 C235.425622,58.0816641 235.462288,57.6783348 235.498955,57.385 L235.608955,56.56 C233.005609,58.3566756 231.703955,60.0066592 231.703955,61.51 Z M290.432442,41.545 C293.805792,41.545 296.61993,42.6266559 298.874942,44.79 C301.129953,46.9533441 302.257442,49.5933177 302.257442,52.71 C302.257442,57.4400237 300.873289,61.2258191 298.104942,64.0675 C295.336595,66.9091809 291.990795,68.33 288.067442,68.33 C284.144089,68.33 281.03662,67.2116779 278.744942,64.975 C276.453264,62.7383222 275.307442,59.9700165 275.307442,56.67 C275.307442,52.0499769 276.719094,48.3833469 279.542442,45.67 C282.402456,42.9199863 286.03242,41.545 290.432442,41.545 Z M289.332442,46 C287.6091,46 286.160781,46.9899901 284.987442,48.97 C283.814103,50.9500099 283.172442,53.4433183 283.062442,56.45 C283.062442,58.5766773 283.493271,60.3366597 284.354942,61.73 C285.216613,63.1233403 286.527433,63.82 288.287442,63.82 C290.047451,63.82 291.523269,62.8483431 292.714942,60.905 C293.906614,58.961657 294.502442,56.7433458 294.502442,54.25 C294.502442,51.7566542 294.080779,49.776674 293.237442,48.31 C292.394104,46.7699923 291.092451,46 289.332442,46 Z M338.105928,42.095 C336.602587,53.9750594 335.850928,60.2999961 335.850928,61.07 C335.850928,62.536674 336.38259,63.27 337.445928,63.27 C338.399266,63.27 339.435089,62.6191732 340.553428,61.3175 C341.671767,60.0158268 342.560925,58.0633464 343.220928,55.46 C344.430934,56.7800066 345.16426,57.806663 345.420928,58.54 C344.577591,62.0966844 343.239271,64.608326 341.405928,66.075 C339.572586,67.541674 337.684271,68.275 335.740928,68.275 C332.550912,68.275 330.405934,67.046679 329.305928,64.59 C327.399252,67.046679 324.850944,68.275 321.660928,68.275 C319.020915,68.275 316.985935,67.6150066 315.555928,66.295 C314.125921,64.9749934 313.410928,63.2516773 313.410928,61.125 C313.410928,60.6116641 313.502594,59.7133398 313.685928,58.43 C314.529266,51.6099659 315.170926,46.1833535 315.610928,42.15 C316.747601,41.7466646 317.79259,41.545 318.745928,41.545 C319.699266,41.545 320.414259,41.5816663 320.890928,41.655 C321.367597,41.7283337 321.825926,42.003331 322.265928,42.48 C322.70593,42.9566691 322.925928,43.6349956 322.925928,44.515 L321.110928,58.54 C321.037594,58.9800022 321.000928,59.3833315 321.000928,59.75 C321.000928,61.9133442 321.990918,62.995 323.970928,62.995 C325.804271,62.995 327.325922,62.0966757 328.535928,60.3 C328.535928,59.8966647 328.572594,59.2550044 328.645928,58.375 L330.460928,43.745 C330.717596,43.1216636 331.267591,42.5991688 332.110928,42.1775 C332.954266,41.7558312 334.008422,41.545 335.273428,41.545 C336.538435,41.545 337.482592,41.7283315 338.105928,42.095 Z M373.404415,51.17 C376.301096,53.2966773 377.749415,55.8083188 377.749415,58.705 C377.749415,61.6016811 376.612759,63.9299912 374.339415,65.69 C372.06607,67.4500088 369.206099,68.33 365.759415,68.33 C363.522737,68.33 361.661922,67.7708389 360.176915,66.6525 C358.691907,65.5341611 357.949415,64.1500082 357.949415,62.5 C357.949415,60.8499918 358.499409,59.5391715 359.599415,58.5675 C360.69942,57.5958285 362.074406,57.0000011 363.724415,56.78 C362.954411,57.8800055 362.569415,58.9341616 362.569415,59.9425 C362.569415,60.9508384 362.917744,61.7666635 363.614415,62.39 C364.311085,63.0133364 365.191076,63.325 366.254415,63.325 C367.317753,63.325 368.197744,62.9308373 368.894415,62.1425 C369.591085,61.3541627 369.939415,60.4466718 369.939415,59.42 C369.939415,57.7333249 369.151089,56.2300066 367.574415,54.91 C366.621077,54.1399962 365.59442,53.4158367 364.494415,52.7375 C363.394409,52.0591633 362.807748,51.7016669 362.734415,51.665 C362.587747,51.5549994 362.441082,51.4633337 362.294415,51.39 C361.634411,52.1600039 360.681088,53.21416 359.434415,54.5525 C358.187742,55.89084 357.197752,56.9633293 356.464415,57.77 C354.411071,60.0066779 353.256083,61.8766592 352.999415,63.38 C352.926081,63.6733348 352.889415,64.2324959 352.889415,65.0575 C352.889415,65.8825041 353.136912,66.7349956 353.631915,67.615 C354.126917,68.4950044 354.722744,69.1549978 355.419415,69.595 C356.116085,70.0350022 356.803578,70.3924986 357.481915,70.6675 C358.160251,70.9425014 358.746912,71.1349994 359.241915,71.245 C359.736917,71.3550005 359.984415,71.4283332 359.984415,71.465 C359.984415,71.7216679 359.581085,72.0149983 358.774415,72.345 C357.271074,72.8950028 355.703589,73.17 354.071915,73.17 C352.44024,73.17 350.854422,72.5833392 349.314415,71.41 C347.224404,69.7966586 346.179415,67.65168 346.179415,64.975 C346.179415,63.3249918 346.601077,61.6933414 347.444415,60.08 C348.947755,57.2199857 352.46772,53.2966916 358.004415,48.31 C356.647741,46.9533265 355.969415,45.5050077 355.969415,43.965 C355.969415,42.4249923 356.546909,41.1233387 357.701915,40.06 C358.85692,38.9966614 360.22274,38.465 361.799415,38.465 C363.229422,38.465 364.476076,39.0333277 365.539415,40.17 C366.236085,40.9400039 366.584415,41.9116608 366.584415,43.085 C366.584415,44.2583392 366.199418,45.578326 365.429415,47.045 C369.352768,48.8050088 372.011074,50.1799951 373.404415,51.17 Z M361.469415,44.955 C362.349419,44.0383287 362.789415,43.3783354 362.789415,42.975 C362.789415,42.0583288 362.386085,41.5633337 361.579415,41.49 C360.662743,41.49 360.204415,42.0033282 360.204415,43.03 C360.204415,43.6533365 360.626077,44.2949967 361.469415,44.955 Z M397.922901,55.68 C400.196246,55.203331 401.892062,54.2866735 403.010401,52.93 C404.12874,51.5733265 404.687901,50.2625063 404.687901,48.9975 C404.687901,47.7324937 404.348738,46.8708356 403.670401,46.4125 C402.992064,45.9541644 402.249572,45.725 401.442901,45.725 C399.719559,45.725 398.207074,46.6874904 396.905401,48.6125 C395.603728,50.5375096 394.952901,52.8291534 394.952901,55.4875 C394.952901,58.1458466 395.585395,60.1258268 396.850401,61.4275 C398.115407,62.7291732 399.682892,63.38 401.552901,63.38 C404.302915,63.38 406.942888,62.4266762 409.472901,60.52 C412.002914,58.6133238 414.056227,56.1200154 415.632901,53.04 C416.439572,53.8100039 417.172898,54.7633277 417.832901,55.9 C416.622895,58.6500137 414.477916,61.3449868 411.397901,63.985 C409.857893,65.2683397 408.033745,66.3133293 405.925401,67.12 C403.817057,67.9266707 401.644579,68.33 399.407901,68.33 C395.741216,68.33 392.844578,67.2116779 390.717901,64.975 C388.444556,62.5549879 387.307901,59.4566856 387.307901,55.68 C387.307901,51.9033144 388.72872,48.6033475 391.570401,45.78 C394.412082,42.9566526 397.812881,41.545 401.772901,41.545 C404.596249,41.545 406.887892,42.1591605 408.647901,43.3875 C410.40791,44.6158395 411.306234,46.2749896 411.342901,48.365 C411.342901,51.1883475 410.215412,53.4799912 407.960401,55.24 C405.70539,57.0000088 402.616254,58.2283299 398.692901,58.925 L397.922901,55.68 Z M421.506388,38.025 C421.506388,34.5049824 423.064705,31.645011 426.181388,29.445 C429.29807,27.244989 433.459695,26.145 438.666388,26.145 C441.78307,26.145 444.514709,26.5024964 446.861388,27.2175 C449.208066,27.9325036 451.004715,28.9133271 452.251388,30.16 C454.744733,32.616679 455.991388,35.439984 455.991388,38.63 C455.991388,41.8200159 454.717234,44.4874893 452.168888,46.6325 C449.620541,48.7775107 446.366407,49.85 442.406388,49.85 C441.966385,49.85 441.306392,49.8133337 440.426388,49.74 L440.921388,45.725 C445.798079,45.725 448.236388,43.4333563 448.236388,38.85 C448.236388,36.7233227 447.338063,34.926674 445.541388,33.46 C443.671378,31.9199923 440.884739,31.15 437.181388,31.15 C433.478036,31.15 430.544732,32.1033238 428.381388,34.01 C427.098048,35.1100055 426.456388,36.3016602 426.456388,37.585 C426.456388,40.0050121 427.904706,41.3799984 430.801388,41.71 L430.141388,45.78 C427.611375,45.6699994 425.539729,44.8633409 423.926388,43.36 C422.313046,41.8566591 421.506388,40.0783436 421.506388,38.025 Z M440.866388,34.01 L438.446388,49.74 C443.103077,51.9766779 445.431388,55.2766449 445.431388,59.64 C445.431388,62.830016 444.597229,65.0758268 442.928888,66.3775 C441.260546,67.6791732 439.253066,68.33 436.906388,68.33 C434.559709,68.33 432.726394,67.7250061 431.406388,66.515 C430.086381,65.3049939 429.426388,63.6733436 429.426388,61.62 C429.426388,61.143331 429.444721,60.776668 429.481388,60.52 L432.781388,35.055 C434.688064,34.1383287 436.301381,33.68 437.621388,33.68 C438.941394,33.68 440.02305,33.7899989 440.866388,34.01 Z M438.501388,63.325 C439.381392,63.325 440.142218,63.0133364 440.783888,62.39 C441.425557,61.7666635 441.746388,60.721674 441.746388,59.255 C441.746388,56.6516537 440.499733,54.5983408 438.006388,53.095 C437.419718,57.3850215 437.126388,59.960829 437.126388,60.8225 C437.126388,61.684171 437.263886,62.3166646 437.538888,62.72 C437.813889,63.1233353 438.134719,63.325 438.501388,63.325 Z M469.454874,27.52 C470.298212,26.6399956 471.324868,26.2 472.534874,26.2 C473.74488,26.2 474.780703,26.630829 475.642374,27.4925 C476.504045,28.354171 476.934874,29.3899939 476.934874,30.6 C476.934874,31.810006 476.504045,32.8366624 475.642374,33.68 C474.780703,34.5233376 473.74488,34.945 472.534874,34.945 C471.324868,34.945 470.298212,34.5233376 469.454874,33.68 C468.611536,32.8366624 468.189874,31.810006 468.189874,30.6 C468.189874,29.3899939 468.611536,28.3633375 469.454874,27.52 Z M467.199874,43.635 C467.566542,42.9749967 468.263202,42.4708351 469.289874,42.1225 C470.316546,41.7741649 471.334036,41.6 472.342374,41.6 C473.350712,41.6 474.23987,41.7283321 475.009874,41.985 C473.579867,53.0217218 472.864874,58.5949994 472.864874,58.705 C472.68154,59.438337 472.589874,60.0524975 472.589874,60.5475 C472.589874,61.0425025 472.62654,61.4733315 472.699874,61.84 C472.846541,62.7933381 473.515701,63.27 474.707374,63.27 C475.899047,63.27 476.999036,62.4908411 478.007374,60.9325 C479.015712,59.3741589 479.776538,57.6050099 480.289874,55.625 C480.546542,55.7716674 480.949871,56.211663 481.499874,56.945 C482.049877,57.678337 482.379873,58.2283315 482.489874,58.595 C481.756537,61.528348 480.509883,63.8933244 478.749874,65.69 C476.989865,67.4866756 474.881553,68.385 472.424874,68.385 C469.968195,68.385 468.144047,67.780006 466.952374,66.57 C465.760701,65.359994 465.164874,63.8016762 465.164874,61.895 C465.164874,61.4916646 465.183207,61.0700022 465.219874,60.63 L467.199874,43.635 Z" id="path-1"></path>
        <filter x="-1.5%" y="-10.6%" width="103.1%" height="129.7%" filterUnits="objectBoundingBox" id="filter-2">
            <feOffset dx="0" dy="2" in="SourceAlpha" result="shadowOffsetOuter1"></feOffset>
            <feGaussianBlur stdDeviation="2" in="shadowOffsetOuter1" result="shadowBlurOuter1"></feGaussianBlur>
            <feColorMatrix values="0 0 0 0 0   0 0 0 0 0   0 0 0 0 0  0 0 0 0.5 0" type="matrix" in="shadowBlurOuter1"></feColorMatrix>
        </filter>
        <path d="M49.826,88.286 L48.838,88.286 C48.8206666,87.1939945 48.7123343,86.3230032 48.513,85.673 C48.3136657,85.0229968 47.975669,84.5376683 47.499,84.217 C47.0223309,83.8963317 46.3420044,83.736 45.458,83.736 L43.248,83.736 L43.222,97.906 C43.222,98.8246713 43.1960003,99.5093311 43.144,99.96 L45.302,99.856 L45.302,101 L39.192,101 L39.192,100.142 C39.9373371,100.107333 40.4183322,99.8993352 40.635,99.518 C40.8516677,99.1366648 40.96,98.5473373 40.96,97.75 L40.96,96.944 L40.986,83.762 L38.308,83.788 C37.233328,83.788 36.4663356,84.1476631 36.007,84.867 C35.5476644,85.5863369 35.318,86.7259922 35.318,88.286 L34.356,88.286 L34.512,82.8 L49.67,82.8 L49.826,88.286 Z M56.729,89.3 C57.3356697,88.7973308 58.0203295,88.3856683 58.783,88.065 C59.5456705,87.7443317 60.2823298,87.584 60.993,87.584 C62.4836741,87.584 63.5669966,88.0519953 64.243,88.988 C64.9190034,89.9240047 65.2656666,91.3973233 65.283,93.408 L65.309,98.244 C65.309,99.0240039 65.2743337,99.6133313 65.205,100.012 L66.843,99.934 L66.843,101 L61.539,101 L61.539,100.22 C62.0416692,100.22 62.4013322,100.094335 62.618,99.843 C62.8346677,99.5916654 62.9646664,99.2710019 63.008,98.881 C63.0513335,98.4909981 63.073,97.8800042 63.073,97.048 L63.073,93.408 C63.073,91.9173259 62.8390023,90.8036704 62.371,90.067 C61.9029977,89.3303296 61.1663384,88.962 60.161,88.962 C59.5196635,88.962 58.8826698,89.1136652 58.25,89.417 C57.6173302,89.7203349 57.1103352,90.1059977 56.729,90.574 L56.729,98.244 C56.729,98.9200034 56.6856671,99.5093308 56.599,100.012 L58.237,99.934 L58.237,101 L52.933,101 L52.933,100.22 C53.4356692,100.22 53.7996655,100.094335 54.025,99.843 C54.2503345,99.5916654 54.3846664,99.2666687 54.428,98.868 C54.4713335,98.4693313 54.493,97.8626707 54.493,97.048 L54.493,84.75 C54.493,84.09133 54.5189997,83.5280023 54.571,83.06 L52.725,83.164 L52.725,82.072 C53.7650052,82.072 54.5059978,82.0113339 54.948,81.89 C55.3900022,81.7686661 55.7323321,81.5953345 55.975,81.37 L56.729,81.37 L56.729,89.3 Z M76.892,87.584 C77.8800049,87.584 78.7726627,87.8006645 79.57,88.234 C80.3673373,88.6673355 80.9999977,89.3129957 81.468,90.171 C81.9360023,91.0290043 82.17,92.0819938 82.17,93.33 L73.018,93.486 C73.0006666,95.5660104 73.3429965,97.1866609 74.045,98.348 C74.7470035,99.5093391 75.8346593,100.09 77.308,100.09 C78.1053373,100.09 78.9243291,99.8820021 79.765,99.466 C80.6056709,99.0499979 81.2513311,98.5386697 81.702,97.932 L82.326,98.452 C81.66733,99.4573384 80.8136719,100.202664 79.765,100.688 C78.7163281,101.173336 77.6893384,101.416 76.684,101.416 C75.487994,101.416 74.4090048,101.134336 73.447,100.571 C72.4849952,100.007664 71.7266694,99.2016719 71.172,98.153 C70.6173306,97.1043281 70.34,95.8953402 70.34,94.526 C70.34,93.3126606 70.6173306,92.1730053 71.172,91.107 C71.7266694,90.0409947 72.5023283,89.1873365 73.499,88.546 C74.4956716,87.9046635 75.6266603,87.584 76.892,87.584 Z M76.918,88.598 C74.7686559,88.598 73.4946687,89.8633207 73.096,92.394 L79.726,92.394 C79.726,91.3539948 79.4920023,90.4613371 79.024,89.716 C78.5559977,88.9706629 77.8540047,88.598 76.918,88.598 Z M103.672,82.384 C105.665343,82.384 107.35966,82.8563286 108.755,83.801 C110.15034,84.7456714 111.194663,85.9459927 111.888,87.402 C112.581337,88.8580073 112.928,90.3573256 112.928,91.9 C112.928,93.425341 112.58567,94.920326 111.901,96.385 C111.21633,97.849674 110.193673,99.0543286 108.833,99.999 C107.472327,100.943671 105.821343,101.416 103.88,101.416 C101.79999,101.416 100.066674,100.956671 98.68,100.038 C97.2933264,99.1193287 96.27067,97.9363406 95.612,96.489 C94.95333,95.0416594 94.624,93.5120081 94.624,91.9 C94.624,90.3573256 94.9663299,88.8580073 95.651,87.402 C96.3356701,85.9459927 97.3583265,84.7456714 98.719,83.801 C100.079673,82.8563286 101.730657,82.384 103.672,82.384 Z M103.594,83.424 C102.241993,83.424 101.080672,83.8096628 100.11,84.581 C99.1393285,85.3523372 98.4070025,86.3533272 97.913,87.584 C97.4189975,88.8146728 97.172,90.0973267 97.172,91.432 C97.172,92.8013402 97.4233308,94.1749931 97.926,95.553 C98.4286692,96.9310069 99.1913282,98.0749955 100.214,98.985 C101.236672,99.8950045 102.475993,100.35 103.932,100.35 C105.284007,100.35 106.440995,99.9643372 107.403,99.193 C108.365005,98.4216628 109.092998,97.4293394 109.587,96.216 C110.081002,95.0026606 110.328,93.7286733 110.328,92.394 C110.328,90.9206593 110.059336,89.4950069 109.522,88.117 C108.984664,86.7389931 108.204672,85.6123377 107.182,84.737 C106.159328,83.8616623 104.96334,83.424 103.594,83.424 Z M124.407,87.584 C125.429672,87.584 126.374329,87.8483307 127.241,88.377 C128.107671,88.9056693 128.805331,89.6596618 129.334,90.639 C129.862669,91.6183382 130.127,92.7493269 130.127,94.032 C130.127,95.4706739 129.82367,96.7489944 129.217,97.867 C128.61033,98.9850056 127.800005,99.8559969 126.786,100.48 C125.771995,101.104003 124.675673,101.416 123.497,101.416 C122.300994,101.416 121.261004,101.130003 120.377,100.558 L120.377,104.874 C120.377,105.654004 120.342334,106.243331 120.273,106.642 L121.911,106.564 L121.911,107.63 L116.607,107.63 L116.607,106.85 C117.109669,106.85 117.469332,106.724335 117.686,106.473 C117.902668,106.221665 118.028333,105.909669 118.063,105.537 C118.097667,105.164331 118.123667,104.544671 118.141,103.678 L118.193,91.12 C118.193,90.3919964 118.227666,89.8286687 118.297,89.43 L116.451,89.534 L116.451,88.442 C117.473672,88.442 118.175665,88.3856672 118.557,88.273 C118.938335,88.1603328 119.250332,87.9826679 119.493,87.74 L120.273,87.74 C120.342334,88.5893376 120.377,89.0573329 120.377,89.144 C120.897003,88.6759977 121.520996,88.2990014 122.249,88.013 C122.977004,87.7269986 123.69633,87.584 124.407,87.584 Z M123.471,88.858 C122.898997,88.858 122.344336,88.9966653 121.807,89.274 C121.269664,89.5513347 120.801669,89.8979979 120.403,90.314 C120.420333,90.4353339 120.429,90.9639953 120.429,91.9 L120.403,99.362 C121.287004,100.038003 122.300994,100.376 123.445,100.376 C124.259671,100.376 124.965997,100.124669 125.564,99.622 C126.162003,99.1193308 126.625665,98.4173378 126.955,97.516 C127.284335,96.6146622 127.449,95.5920057 127.449,94.448 C127.449,92.8879922 127.115337,91.5663387 126.448,90.483 C125.780663,89.3996612 124.78834,88.858 123.471,88.858 Z M140.488,87.584 C141.476005,87.584 142.368663,87.8006645 143.166,88.234 C143.963337,88.6673355 144.595998,89.3129957 145.064,90.171 C145.532002,91.0290043 145.766,92.0819938 145.766,93.33 L136.614,93.486 C136.596667,95.5660104 136.938996,97.1866609 137.641,98.348 C138.343004,99.5093391 139.430659,100.09 140.904,100.09 C141.701337,100.09 142.520329,99.8820021 143.361,99.466 C144.201671,99.0499979 144.847331,98.5386697 145.298,97.932 L145.922,98.452 C145.26333,99.4573384 144.409672,100.202664 143.361,100.688 C142.312328,101.173336 141.285338,101.416 140.28,101.416 C139.083994,101.416 138.005005,101.134336 137.043,100.571 C136.080995,100.007664 135.322669,99.2016719 134.768,98.153 C134.213331,97.1043281 133.936,95.8953402 133.936,94.526 C133.936,93.3126606 134.213331,92.1730053 134.768,91.107 C135.322669,90.0409947 136.098328,89.1873365 137.095,88.546 C138.091672,87.9046635 139.22266,87.584 140.488,87.584 Z M140.514,88.598 C138.364656,88.598 137.090669,89.8633207 136.692,92.394 L143.322,92.394 C143.322,91.3539948 143.088002,90.4613371 142.62,89.716 C142.151998,88.9706629 141.450005,88.598 140.514,88.598 Z M157.687,87.584 C159.195008,87.584 160.295663,88.0563286 160.989,89.001 C161.682337,89.9456714 162.029,91.4146567 162.029,93.408 L162.029,98.244 C162.029,99.0240039 161.994334,99.6133313 161.925,100.012 L163.563,99.934 L163.563,101 L158.259,101 L158.259,100.22 C158.761669,100.22 159.121332,100.094335 159.338,99.843 C159.554668,99.5916654 159.684666,99.2710019 159.728,98.881 C159.771334,98.4909981 159.793,97.8800042 159.793,97.048 L159.793,93.408 C159.775667,91.9173259 159.533002,90.7950038 159.065,90.041 C158.596998,89.2869962 157.860338,88.91 156.855,88.91 C156.230997,88.91 155.611336,89.0659984 154.996,89.378 C154.380664,89.6900016 153.873669,90.0973308 153.475,90.6 C153.492333,90.7906676 153.501,91.1286642 153.501,91.614 L153.475,98.244 C153.475,99.0240039 153.440334,99.6133313 153.371,100.012 L155.009,99.934 L155.009,101 L149.705,101 L149.705,100.22 C150.207669,100.22 150.567332,100.094335 150.784,99.843 C151.000668,99.5916654 151.126333,99.2796685 151.161,98.907 C151.195667,98.5343315 151.221667,97.914671 151.239,97.048 L151.265,91.12 C151.265,90.3919964 151.299666,89.8286687 151.369,89.43 L149.523,89.534 L149.523,88.442 C150.545672,88.442 151.247665,88.3856672 151.629,88.273 C152.010335,88.1603328 152.330999,87.9826679 152.591,87.74 L153.345,87.74 C153.379667,88.069335 153.414333,88.5979964 153.449,89.326 C154.038336,88.8059974 154.709996,88.3856683 155.464,88.065 C156.218004,87.7443317 156.958996,87.584 157.687,87.584 Z M181.269,82.384 C182.049004,82.384 182.833329,82.4836657 183.622,82.683 C184.410671,82.8823343 185.13433,83.2246642 185.793,83.71 L185.689,82.592 L187.015,82.592 L187.015,88.312 L186.079,88.312 C185.992333,86.9426598 185.554671,85.7856714 184.766,84.841 C183.977329,83.8963286 182.87234,83.424 181.451,83.424 C180.410995,83.424 179.596336,83.7143304 179.007,84.295 C178.417664,84.8756696 178.123,85.599329 178.123,86.466 C178.123,87.1593368 178.322331,87.7573308 178.721,88.26 C179.119669,88.7626692 179.604997,89.178665 180.177,89.508 C180.749003,89.837335 181.554995,90.2446642 182.595,90.73 C183.773673,91.267336 184.722663,91.7526645 185.442,92.186 C186.161337,92.6193355 186.772331,93.1869965 187.275,93.889 C187.777669,94.5910035 188.029,95.4533282 188.029,96.476 C188.029,97.4466715 187.790669,98.3046629 187.314,99.05 C186.837331,99.7953371 186.139671,100.375998 185.221,100.792 C184.302329,101.208002 183.21034,101.416 181.945,101.416 C181.130329,101.416 180.311337,101.303334 179.488,101.078 C178.664663,100.852666 177.941003,100.523336 177.317,100.09 L177.447,101.208 L176.095,101.208 L175.939,95.67 L176.953,95.67 C177.039667,97.1606741 177.550995,98.308996 178.487,99.115 C179.423005,99.921004 180.610326,100.324 182.049,100.324 C183.106339,100.324 183.994663,100.03367 184.714,99.453 C185.433337,98.8723304 185.793,98.0793384 185.793,97.074 C185.793,96.3286629 185.589335,95.6916693 185.182,95.163 C184.774665,94.6343307 184.272003,94.1923351 183.674,93.837 C183.075997,93.4816649 182.265672,93.0700023 181.243,92.602 C180.081661,92.0473306 179.15867,91.5620021 178.474,91.146 C177.78933,90.7299979 177.204336,90.1796701 176.719,89.495 C176.233664,88.8103299 175.991,87.9653384 175.991,86.96 C175.991,86.2666632 176.151332,85.5733368 176.472,84.88 C176.792668,84.1866632 177.347329,83.5973358 178.136,83.112 C178.924671,82.6266642 179.968993,82.384 181.269,82.384 Z M198.39,87.584 C199.586006,87.584 200.686662,87.8743304 201.692,88.455 C202.697338,89.0356696 203.49033,89.8286616 204.071,90.834 C204.65167,91.8393384 204.942,92.9573272 204.942,94.188 C204.942,95.5053399 204.65167,96.7186611 204.071,97.828 C203.49033,98.9373389 202.701672,99.8126635 201.705,100.454 C200.708328,101.095337 199.603339,101.416 198.39,101.416 C197.193994,101.416 196.097672,101.134336 195.101,100.571 C194.104328,100.007664 193.31567,99.2233384 192.735,98.218 C192.15433,97.2126616 191.864,96.0773397 191.864,94.812 C191.864,93.4599932 192.149997,92.2336722 192.722,91.133 C193.294003,90.0323278 194.078328,89.1656698 195.075,88.533 C196.071672,87.9003302 197.176661,87.584 198.39,87.584 Z M198.39,88.572 C197.107327,88.572 196.141003,89.1006614 195.491,90.158 C194.840997,91.2153386 194.516,92.5153256 194.516,94.058 C194.516,95.1673389 194.667665,96.2029952 194.971,97.165 C195.274335,98.1270048 195.733664,98.9026637 196.349,99.492 C196.964336,100.081336 197.713996,100.376 198.598,100.376 C199.86334,100.376 200.794997,99.8560052 201.393,98.816 C201.991003,97.7759948 202.29,96.4846744 202.29,94.942 C202.29,93.1913246 201.965003,91.6920062 201.315,90.444 C200.664997,89.1959938 199.690006,88.572 198.39,88.572 Z M220.633,97.568 C220.633,98.5733384 220.598334,99.3879969 220.529,100.012 L222.401,99.908 L222.401,101 L218.683,101 C218.596333,100.462664 218.535667,99.9426692 218.501,99.44 C217.928997,100.012003 217.26167,100.484331 216.499,100.857 C215.73633,101.229669 214.991004,101.416 214.263,101.416 C212.789659,101.416 211.71067,100.991338 211.026,100.142 C210.34133,99.2926624 209.999,97.8280104 209.999,95.748 L209.999,91.12 C209.999,90.3919964 210.033666,89.8286687 210.103,89.43 L208.309,89.508 L208.309,88.442 L209.115,88.442 C209.791003,88.442 210.302332,88.3813339 210.649,88.26 C210.995668,88.1386661 211.290332,87.9653345 211.533,87.74 L212.287,87.74 L212.287,95.67 C212.287,97.195341 212.499331,98.3133298 212.924,99.024 C213.348669,99.7346702 214.054995,100.09 215.043,100.09 C215.684337,100.09 216.312664,99.8993352 216.928,99.518 C217.543336,99.1366648 218.041665,98.6600029 218.423,98.088 L218.423,91.406 C218.423,90.5913293 218.466333,89.9326692 218.553,89.43 L216.681,89.508 L216.681,88.442 L217.487,88.442 C218.163003,88.442 218.674332,88.3813339 219.021,88.26 C219.367668,88.1386661 219.662332,87.9653345 219.905,87.74 L220.659,87.74 L220.633,97.568 Z M234.036,87.584 C234.556003,87.584 234.989332,87.7226653 235.336,88 C235.682668,88.2773347 235.856,88.684664 235.856,89.222 C235.856,89.4993347 235.747668,89.7766653 235.531,90.054 C235.314332,90.3313347 235.006669,90.47 234.608,90.47 C234.226665,90.47 233.914668,90.3270014 233.672,90.041 C233.429332,89.7549986 233.334,89.4126687 233.386,89.014 C232.72733,88.9966666 232.064337,89.2479974 231.397,89.768 C230.729663,90.2880026 230.162002,90.981329 229.694,91.848 L229.72,98.244 C229.72,99.0240039 229.685334,99.6133313 229.616,100.012 L231.254,99.934 L231.254,101 L225.924,101 L225.924,100.22 C226.426669,100.22 226.786332,100.094335 227.003,99.843 C227.219668,99.5916654 227.349666,99.2710019 227.393,98.881 C227.436334,98.4909981 227.458,97.8800042 227.458,97.048 L227.458,91.12 C227.458,90.3919964 227.492666,89.8286687 227.562,89.43 L225.716,89.508 L225.716,88.442 L226.522,88.442 C227.18067,88.442 227.657332,88.3856672 227.952,88.273 C228.246668,88.1603328 228.523999,87.9826679 228.784,87.74 L229.538,87.74 C229.607334,88.4160034 229.650667,89.2739948 229.668,90.314 C230.101336,89.6033298 230.720996,88.9706694 231.527,88.416 C232.333004,87.8613306 233.169329,87.584 234.036,87.584 Z M245.333,87.584 C246.269005,87.584 247.100996,87.7313319 247.829,88.026 C248.557004,88.3206681 249.124665,88.7106642 249.532,89.196 C249.939335,89.6813358 250.143,90.2099971 250.143,90.782 C250.143,91.1806687 250.030334,91.5099987 249.805,91.77 C249.579666,92.0300013 249.267669,92.16 248.869,92.16 C248.487665,92.16 248.201668,92.0343346 248.011,91.783 C247.820332,91.5316654 247.725,91.2673347 247.725,90.99 C247.725,90.5566645 247.854999,90.2100013 248.115,89.95 C247.924332,89.412664 247.556003,89.0443343 247.01,88.845 C246.463997,88.6456657 245.922336,88.546 245.385,88.546 C244.587663,88.546 243.87267,88.7626645 243.24,89.196 C242.60733,89.6293355 242.109002,90.2619958 241.745,91.094 C241.380998,91.9260042 241.199,92.9226609 241.199,94.084 C241.199,95.2453391 241.385331,96.2766622 241.758,97.178 C242.130669,98.0793378 242.654997,98.7856641 243.331,99.297 C244.007003,99.8083359 244.786996,100.064 245.671,100.064 C246.451004,100.064 247.217996,99.8516688 247.972,99.427 C248.726004,99.0023312 249.319664,98.4693365 249.753,97.828 L250.429,98.348 C249.787663,99.3533384 248.960005,100.115997 247.946,100.636 C246.931995,101.156003 245.939672,101.416 244.969,101.416 C243.790327,101.416 242.711338,101.147336 241.732,100.61 C240.752662,100.072664 239.977003,99.3013384 239.405,98.296 C238.832997,97.2906616 238.547,96.1033402 238.547,94.734 C238.547,93.5206606 238.83733,92.3636722 239.418,91.263 C239.99867,90.1623278 240.804662,89.2740034 241.836,88.598 C242.867338,87.9219966 244.032993,87.584 245.333,87.584 Z M260.452,87.584 C261.440005,87.584 262.332663,87.8006645 263.13,88.234 C263.927337,88.6673355 264.559998,89.3129957 265.028,90.171 C265.496002,91.0290043 265.73,92.0819938 265.73,93.33 L256.578,93.486 C256.560667,95.5660104 256.902996,97.1866609 257.605,98.348 C258.307004,99.5093391 259.394659,100.09 260.868,100.09 C261.665337,100.09 262.484329,99.8820021 263.325,99.466 C264.165671,99.0499979 264.811331,98.5386697 265.262,97.932 L265.886,98.452 C265.22733,99.4573384 264.373672,100.202664 263.325,100.688 C262.276328,101.173336 261.249338,101.416 260.244,101.416 C259.047994,101.416 257.969005,101.134336 257.007,100.571 C256.044995,100.007664 255.286669,99.2016719 254.732,98.153 C254.177331,97.1043281 253.9,95.8953402 253.9,94.526 C253.9,93.3126606 254.177331,92.1730053 254.732,91.107 C255.286669,90.0409947 256.062328,89.1873365 257.059,88.546 C258.055672,87.9046635 259.18666,87.584 260.452,87.584 Z M260.478,88.598 C258.328656,88.598 257.054669,89.8633207 256.656,92.394 L263.286,92.394 C263.286,91.3539948 263.052002,90.4613371 262.584,89.716 C262.115998,88.9706629 261.414005,88.598 260.478,88.598 Z M284.294,82.748 C286.339344,82.748 287.912328,83.1076631 289.013,83.827 C290.113672,84.5463369 290.664,85.6339927 290.664,87.09 C290.664,88.0260047 290.29567,88.8883294 289.559,89.677 C288.82233,90.4656706 287.760674,90.9813321 286.374,91.224 L286.374,91.276 C288.228676,91.276 289.654328,91.7006624 290.651,92.55 C291.647672,93.3993376 292.146,94.5173264 292.146,95.904 C292.146,96.9440052 291.881669,97.8496628 291.353,98.621 C290.824331,99.3923372 290.096338,99.9816646 289.169,100.389 C288.241662,100.796335 287.188673,101 286.01,101 L278.418,101 L278.418,100.142 C279.02467,100.124667 279.457999,99.9860013 279.718,99.726 C279.978001,99.4659987 280.125333,99.1496685 280.16,98.777 C280.194667,98.4043315 280.212,97.7500047 280.212,96.814 L280.212,85.894 C280.212,84.9579953 280.238,84.2733355 280.29,83.84 L278.418,83.944 L278.418,82.8 C280.948679,82.7653332 282.907326,82.748 284.294,82.748 Z M284.424,83.684 C283.869331,83.684 283.453335,83.7619992 283.176,83.918 C282.898665,84.0740008 282.712334,84.3253316 282.617,84.672 C282.521666,85.0186684 282.474,85.5299966 282.474,86.206 L282.474,91.042 L284.372,90.99 C285.74134,90.9726666 286.737997,90.5956704 287.362,89.859 C287.986003,89.1223296 288.298,88.216672 288.298,87.142 C288.298,85.8419935 287.921004,84.9406692 287.167,84.438 C286.412996,83.9353308 285.498672,83.684 284.424,83.684 Z M285.152,91.978 C284.198662,91.978 283.306004,92.0039997 282.474,92.056 L282.474,97.932 C282.474,98.8333378 282.448,99.5093311 282.396,99.96 C282.725335,99.9946668 283.349329,100.012 284.268,100.012 L285.152,100.012 C286.52134,100.012 287.608996,99.6696701 288.415,98.985 C289.221004,98.3003299 289.624,97.3253397 289.624,96.06 C289.624,94.5866593 289.212337,93.5380031 288.389,92.914 C287.565663,92.2899969 286.486673,91.978 285.152,91.978 Z M301.857,82.748 C303.902344,82.748 305.475328,83.1076631 306.576,83.827 C307.676672,84.5463369 308.227,85.6339927 308.227,87.09 C308.227,88.0260047 307.85867,88.8883294 307.122,89.677 C306.38533,90.4656706 305.323674,90.9813321 303.937,91.224 L303.937,91.276 C305.791676,91.276 307.217328,91.7006624 308.214,92.55 C309.210672,93.3993376 309.709,94.5173264 309.709,95.904 C309.709,96.9440052 309.444669,97.8496628 308.916,98.621 C308.387331,99.3923372 307.659338,99.9816646 306.732,100.389 C305.804662,100.796335 304.751673,101 303.573,101 L295.981,101 L295.981,100.142 C296.58767,100.124667 297.020999,99.9860013 297.281,99.726 C297.541001,99.4659987 297.688333,99.1496685 297.723,98.777 C297.757667,98.4043315 297.775,97.7500047 297.775,96.814 L297.775,85.894 C297.775,84.9579953 297.801,84.2733355 297.853,83.84 L295.981,83.944 L295.981,82.8 C298.511679,82.7653332 300.470326,82.748 301.857,82.748 Z M301.987,83.684 C301.432331,83.684 301.016335,83.7619992 300.739,83.918 C300.461665,84.0740008 300.275334,84.3253316 300.18,84.672 C300.084666,85.0186684 300.037,85.5299966 300.037,86.206 L300.037,91.042 L301.935,90.99 C303.30434,90.9726666 304.300997,90.5956704 304.925,89.859 C305.549003,89.1223296 305.861,88.216672 305.861,87.142 C305.861,85.8419935 305.484004,84.9406692 304.73,84.438 C303.975996,83.9353308 303.061672,83.684 301.987,83.684 Z M302.715,91.978 C301.761662,91.978 300.869004,92.0039997 300.037,92.056 L300.037,97.932 C300.037,98.8333378 300.011,99.5093311 299.959,99.96 C300.288335,99.9946668 300.912329,100.012 301.831,100.012 L302.715,100.012 C304.08434,100.012 305.171996,99.6696701 305.978,98.985 C306.784004,98.3003299 307.187,97.3253397 307.187,96.06 C307.187,94.5866593 306.775337,93.5380031 305.952,92.914 C305.128663,92.2899969 304.049673,91.978 302.715,91.978 Z M328.624,102.846 C329.646672,103.799338 330.352998,104.444998 330.743,104.783 C331.133002,105.121002 331.488332,105.376666 331.809,105.55 C332.129668,105.723334 332.454665,105.81 332.784,105.81 L332.784,106.668 L331.952,106.668 C331.18933,106.668 330.608669,106.646334 330.21,106.603 C329.811331,106.559666 329.399669,106.434001 328.975,106.226 C328.550331,106.017999 328.078003,105.680002 327.558,105.212 C327.072664,104.778665 326.483337,104.198004 325.79,103.47 C325.044663,102.724663 324.459669,102.196002 324.035,101.884 C323.610331,101.571998 323.138003,101.416 322.618,101.416 C320.572656,101.381333 318.869673,100.900338 317.509,99.973 C316.148327,99.045662 315.147337,97.8670072 314.506,96.437 C313.864663,95.0069929 313.544,93.4946746 313.544,91.9 C313.544,90.3573256 313.88633,88.8580073 314.571,87.402 C315.25567,85.9459927 316.278327,84.7456714 317.639,83.801 C318.999673,82.8563286 320.650657,82.384 322.592,82.384 C324.585343,82.384 326.27966,82.8563286 327.675,83.801 C329.07034,84.7456714 330.114663,85.9459927 330.808,87.402 C331.501337,88.8580073 331.848,90.3573256 331.848,91.9 C331.848,93.2173399 331.588003,94.5303268 331.068,95.839 C330.547997,97.1476732 329.763672,98.2829952 328.715,99.245 C327.666328,100.207005 326.396674,100.852665 324.906,101.182 C325.61667,101.199333 326.236331,101.311999 326.765,101.52 C327.293669,101.728001 327.91333,102.169997 328.624,102.846 Z M316.092,91.432 C316.092,92.8013402 316.343331,94.1749931 316.846,95.553 C317.348669,96.9310069 318.111328,98.0749955 319.134,98.985 C320.156672,99.8950045 321.395993,100.35 322.852,100.35 C324.204007,100.35 325.360995,99.9643372 326.323,99.193 C327.285005,98.4216628 328.012998,97.4293394 328.507,96.216 C329.001002,95.0026606 329.248,93.7286733 329.248,92.394 C329.248,90.9206593 328.979336,89.4950069 328.442,88.117 C327.904664,86.7389931 327.124672,85.6123377 326.102,84.737 C325.079328,83.8616623 323.88334,83.424 322.514,83.424 C321.161993,83.424 320.000672,83.8096628 319.03,84.581 C318.059328,85.3523372 317.327002,86.3533272 316.833,87.584 C316.338998,88.8146728 316.092,90.0973267 316.092,91.432 Z M353.35,82.384 C355.256676,82.384 357.007325,82.9126614 358.602,83.97 L358.472,82.566 L359.876,82.566 L359.876,88.598 L358.94,88.598 C358.766666,86.9859919 358.199005,85.7250045 357.237,84.815 C356.274995,83.9049955 355.040008,83.45 353.532,83.45 C352.301327,83.45 351.179005,83.7923299 350.165,84.477 C349.150995,85.1616701 348.349336,86.1366603 347.76,87.402 C347.170664,88.6673397 346.876,90.1319917 346.876,91.796 C346.876,93.3906746 347.187997,94.816327 347.812,96.073 C348.436003,97.329673 349.276661,98.3089965 350.334,99.011 C351.391339,99.7130035 352.561327,100.064 353.844,100.064 C355.005339,100.064 356.123328,99.8040026 357.198,99.284 C358.272672,98.7639974 359.156663,98.0273381 359.85,97.074 L360.526,97.62 C359.520662,99.024007 358.368007,100.007664 357.068,100.571 C355.767994,101.134336 354.468007,101.416 353.168,101.416 C351.469325,101.416 349.94834,101.008671 348.605,100.194 C347.26166,99.3793293 346.213004,98.270007 345.459,96.866 C344.704996,95.461993 344.328,93.9020086 344.328,92.186 C344.328,90.4873248 344.67033,88.8926741 345.355,87.402 C346.03967,85.9113259 347.062327,84.702338 348.423,83.775 C349.783673,82.847662 351.42599,82.384 353.35,82.384 Z M370.523,87.584 C371.719006,87.584 372.819662,87.8743304 373.825,88.455 C374.830338,89.0356696 375.62333,89.8286616 376.204,90.834 C376.78467,91.8393384 377.075,92.9573272 377.075,94.188 C377.075,95.5053399 376.78467,96.7186611 376.204,97.828 C375.62333,98.9373389 374.834672,99.8126635 373.838,100.454 C372.841328,101.095337 371.736339,101.416 370.523,101.416 C369.326994,101.416 368.230672,101.134336 367.234,100.571 C366.237328,100.007664 365.44867,99.2233384 364.868,98.218 C364.28733,97.2126616 363.997,96.0773397 363.997,94.812 C363.997,93.4599932 364.282997,92.2336722 364.855,91.133 C365.427003,90.0323278 366.211328,89.1656698 367.208,88.533 C368.204672,87.9003302 369.309661,87.584 370.523,87.584 Z M370.523,88.572 C369.240327,88.572 368.274003,89.1006614 367.624,90.158 C366.973997,91.2153386 366.649,92.5153256 366.649,94.058 C366.649,95.1673389 366.800665,96.2029952 367.104,97.165 C367.407335,98.1270048 367.866664,98.9026637 368.482,99.492 C369.097336,100.081336 369.846996,100.376 370.731,100.376 C371.99634,100.376 372.927997,99.8560052 373.526,98.816 C374.124003,97.7759948 374.423,96.4846744 374.423,94.942 C374.423,93.1913246 374.098003,91.6920062 373.448,90.444 C372.797997,89.1959938 371.823007,88.572 370.523,88.572 Z M396.328,87.584 C397.853341,87.584 398.966996,88.047662 399.669,88.975 C400.371004,89.902338 400.704667,91.3799899 400.67,93.408 L400.644,98.244 C400.644,99.0240039 400.609334,99.6133313 400.54,100.012 L402.178,99.934 L402.178,101 L396.874,101 L396.874,100.22 C397.376669,100.22 397.736332,100.094335 397.953,99.843 C398.169668,99.5916654 398.299666,99.2710019 398.343,98.881 C398.386334,98.4909981 398.408,97.8800042 398.408,97.048 L398.408,93.408 C398.408,91.9173259 398.174002,90.8036704 397.706,90.067 C397.237998,89.3303296 396.501338,88.962 395.496,88.962 C394.958664,88.962 394.417003,89.0789988 393.871,89.313 C393.324997,89.5470012 392.844002,89.8546648 392.428,90.236 C392.601334,90.773336 392.688,91.4059964 392.688,92.134 L392.636,98.244 C392.636,99.0240039 392.601334,99.6133313 392.532,100.012 L394.17,99.934 L394.17,101 L388.866,101 L388.866,100.22 C389.368669,100.22 389.728332,100.094335 389.945,99.843 C390.161668,99.5916654 390.287333,99.2796685 390.322,98.907 C390.356667,98.5343315 390.382667,97.914671 390.4,97.048 L390.426,93.408 C390.443333,91.8999925 390.226669,90.7733371 389.776,90.028 C389.325331,89.2826629 388.606005,88.91 387.618,88.91 C387.080664,88.91 386.547669,89.0226655 386.019,89.248 C385.490331,89.4733345 385.035335,89.7766648 384.654,90.158 L384.68,91.562 L384.68,98.244 C384.68,99.0240039 384.645334,99.6133313 384.576,100.012 L386.214,99.934 L386.214,101 L380.91,101 L380.91,100.22 C381.412669,100.22 381.772332,100.094335 381.989,99.843 C382.205668,99.5916654 382.335666,99.2710019 382.379,98.881 C382.422334,98.4909981 382.444,97.8800042 382.444,97.048 L382.444,91.12 C382.444,90.3919964 382.478666,89.8286687 382.548,89.43 L380.702,89.534 L380.702,88.442 C381.724672,88.442 382.426665,88.3856672 382.808,88.273 C383.189335,88.1603328 383.509999,87.9826679 383.77,87.74 L384.524,87.74 C384.558667,88.0000013 384.593333,88.45933 384.628,89.118 C385.165336,88.6499977 385.771997,88.2773347 386.448,88 C387.124003,87.7226653 387.79133,87.584 388.45,87.584 C389.299338,87.584 390.022997,87.7356652 390.621,88.039 C391.219003,88.3423349 391.682665,88.7713306 392.012,89.326 C392.636003,88.8233308 393.333663,88.407335 394.105,88.078 C394.876337,87.748665 395.61733,87.584 396.328,87.584 Z M413.345,87.584 C414.367672,87.584 415.312329,87.8483307 416.179,88.377 C417.045671,88.9056693 417.743331,89.6596618 418.272,90.639 C418.800669,91.6183382 419.065,92.7493269 419.065,94.032 C419.065,95.4706739 418.76167,96.7489944 418.155,97.867 C417.54833,98.9850056 416.738005,99.8559969 415.724,100.48 C414.709995,101.104003 413.613673,101.416 412.435,101.416 C411.238994,101.416 410.199004,101.130003 409.315,100.558 L409.315,104.874 C409.315,105.654004 409.280334,106.243331 409.211,106.642 L410.849,106.564 L410.849,107.63 L405.545,107.63 L405.545,106.85 C406.047669,106.85 406.407332,106.724335 406.624,106.473 C406.840668,106.221665 406.966333,105.909669 407.001,105.537 C407.035667,105.164331 407.061667,104.544671 407.079,103.678 L407.131,91.12 C407.131,90.3919964 407.165666,89.8286687 407.235,89.43 L405.389,89.534 L405.389,88.442 C406.411672,88.442 407.113665,88.3856672 407.495,88.273 C407.876335,88.1603328 408.188332,87.9826679 408.431,87.74 L409.211,87.74 C409.280334,88.5893376 409.315,89.0573329 409.315,89.144 C409.835003,88.6759977 410.458996,88.2990014 411.187,88.013 C411.915004,87.7269986 412.63433,87.584 413.345,87.584 Z M412.409,88.858 C411.836997,88.858 411.282336,88.9966653 410.745,89.274 C410.207664,89.5513347 409.739669,89.8979979 409.341,90.314 C409.358333,90.4353339 409.367,90.9639953 409.367,91.9 L409.341,99.362 C410.225004,100.038003 411.238994,100.376 412.383,100.376 C413.197671,100.376 413.903997,100.124669 414.502,99.622 C415.100003,99.1193308 415.563665,98.4173378 415.893,97.516 C416.222335,96.6146622 416.387,95.5920057 416.387,94.448 C416.387,92.8879922 416.053337,91.5663387 415.386,90.483 C414.718663,89.3996612 413.72634,88.858 412.409,88.858 Z M434.782,97.568 C434.782,98.5733384 434.747334,99.3879969 434.678,100.012 L436.55,99.908 L436.55,101 L432.832,101 C432.745333,100.462664 432.684667,99.9426692 432.65,99.44 C432.077997,100.012003 431.41067,100.484331 430.648,100.857 C429.88533,101.229669 429.140004,101.416 428.412,101.416 C426.938659,101.416 425.85967,100.991338 425.175,100.142 C424.49033,99.2926624 424.148,97.8280104 424.148,95.748 L424.148,91.12 C424.148,90.3919964 424.182666,89.8286687 424.252,89.43 L422.458,89.508 L422.458,88.442 L423.264,88.442 C423.940003,88.442 424.451332,88.3813339 424.798,88.26 C425.144668,88.1386661 425.439332,87.9653345 425.682,87.74 L426.436,87.74 L426.436,95.67 C426.436,97.195341 426.648331,98.3133298 427.073,99.024 C427.497669,99.7346702 428.203995,100.09 429.192,100.09 C429.833337,100.09 430.461664,99.8993352 431.077,99.518 C431.692336,99.1366648 432.190665,98.6600029 432.572,98.088 L432.572,91.406 C432.572,90.5913293 432.615333,89.9326692 432.702,89.43 L430.83,89.508 L430.83,88.442 L431.636,88.442 C432.312003,88.442 432.823332,88.3813339 433.17,88.26 C433.516668,88.1386661 433.811332,87.9653345 434.054,87.74 L434.808,87.74 L434.782,97.568 Z M443.765,88 L448.133,88 L448.133,89.014 L443.765,89.066 C443.747667,91.7180133 443.734667,93.5553282 443.726,94.578 C443.717333,95.6006718 443.713,96.1726661 443.713,96.294 C443.713,97.5246728 443.860332,98.438997 444.155,99.037 C444.449668,99.635003 444.960996,99.934 445.689,99.934 C446.139669,99.934 446.585998,99.7953347 447.028,99.518 C447.470002,99.2406653 447.855665,98.8593358 448.185,98.374 L448.887,98.946 C448.210997,99.9513384 447.54367,100.614332 446.885,100.935 C446.22633,101.255668 445.585003,101.416 444.961,101.416 C442.586321,101.416 441.407667,99.8213493 441.425,96.632 L441.477,89.092 L439.475,89.118 L439.475,88 C440.307004,87.9826666 441.01333,87.6056703 441.594,86.869 C442.17467,86.1323297 442.603665,85.2960047 442.881,84.36 L443.765,84.36 L443.765,88 Z M458.26,87.584 C459.248005,87.584 460.140663,87.8006645 460.938,88.234 C461.735337,88.6673355 462.367998,89.3129957 462.836,90.171 C463.304002,91.0290043 463.538,92.0819938 463.538,93.33 L454.386,93.486 C454.368667,95.5660104 454.710996,97.1866609 455.413,98.348 C456.115004,99.5093391 457.202659,100.09 458.676,100.09 C459.473337,100.09 460.292329,99.8820021 461.133,99.466 C461.973671,99.0499979 462.619331,98.5386697 463.07,97.932 L463.694,98.452 C463.03533,99.4573384 462.181672,100.202664 461.133,100.688 C460.084328,101.173336 459.057338,101.416 458.052,101.416 C456.855994,101.416 455.777005,101.134336 454.815,100.571 C453.852995,100.007664 453.094669,99.2016719 452.54,98.153 C451.985331,97.1043281 451.708,95.8953402 451.708,94.526 C451.708,93.3126606 451.985331,92.1730053 452.54,91.107 C453.094669,90.0409947 453.870328,89.1873365 454.867,88.546 C455.863672,87.9046635 456.99466,87.584 458.26,87.584 Z M458.286,88.598 C456.136656,88.598 454.862669,89.8633207 454.464,92.394 L461.094,92.394 C461.094,91.3539948 460.860002,90.4613371 460.392,89.716 C459.923998,88.9706629 459.222005,88.598 458.286,88.598 Z M475.589,87.584 C476.109003,87.584 476.542332,87.7226653 476.889,88 C477.235668,88.2773347 477.409,88.684664 477.409,89.222 C477.409,89.4993347 477.300668,89.7766653 477.084,90.054 C476.867332,90.3313347 476.559669,90.47 476.161,90.47 C475.779665,90.47 475.467668,90.3270014 475.225,90.041 C474.982332,89.7549986 474.887,89.4126687 474.939,89.014 C474.28033,88.9966666 473.617337,89.2479974 472.95,89.768 C472.282663,90.2880026 471.715002,90.981329 471.247,91.848 L471.273,98.244 C471.273,99.0240039 471.238334,99.6133313 471.169,100.012 L472.807,99.934 L472.807,101 L467.477,101 L467.477,100.22 C467.979669,100.22 468.339332,100.094335 468.556,99.843 C468.772668,99.5916654 468.902666,99.2710019 468.946,98.881 C468.989334,98.4909981 469.011,97.8800042 469.011,97.048 L469.011,91.12 C469.011,90.3919964 469.045666,89.8286687 469.115,89.43 L467.269,89.508 L467.269,88.442 L468.075,88.442 C468.73367,88.442 469.210332,88.3856672 469.505,88.273 C469.799668,88.1603328 470.076999,87.9826679 470.337,87.74 L471.091,87.74 C471.160334,88.4160034 471.203667,89.2739948 471.221,90.314 C471.654336,89.6033298 472.273996,88.9706694 473.08,88.416 C473.886004,87.8613306 474.722329,87.584 475.589,87.584 Z" id="path-3"></path>
        <filter x="-1.6%" y="-19.0%" width="103.2%" height="153.3%" filterUnits="objectBoundingBox" id="filter-4">
            <feOffset dx="0" dy="2" in="SourceAlpha" result="shadowOffsetOuter1"></feOffset>
            <feGaussianBlur stdDeviation="2" in="shadowOffsetOuter1" result="shadowBlurOuter1"></feGaussianBlur>
            <feColorMatrix values="0 0 0 0 0   0 0 0 0 0   0 0 0 0 0  0 0 0 0.5 0" type="matrix" in="shadowBlurOuter1"></feColorMatrix>
        </filter>
    </defs>
    <g id="Rect4x1" stroke="none" stroke-width="1" fill="none" fill-rule="evenodd">
        <rect fill="#DC4A36" x="0" y="0" width="512" height="128"></rect>
        <g id="Group" opacity="0.65" transform="translate(-15.000000, 16.000000)" fill="#F1F1F1" fill-opacity="0.3">
            <rect id="Rectangle" transform="translate(47.500000, 47.617000) rotate(-45.000000) translate(-47.500000, -47.617000) " x="14" y="14.117" width="67" height="67"></rect>
            <rect id="Rectangle" transform="translate(122.500000, 47.617000) rotate(-45.000000) translate(-122.500000, -47.617000) " x="89" y="14.117" width="67" height="67"></rect>
            <rect id="Rectangle" transform="translate(196.500000, 47.617000) rotate(-45.000000) translate(-196.500000, -47.617000) " x="163" y="14.117" width="67" height="67"></rect>
            <rect id="Rectangle" transform="translate(271.500000, 47.617000) rotate(-45.000000) translate(-271.500000, -47.617000) " x="238" y="14.117" width="67" height="67"></rect>
            <rect id="Rectangle" transform="translate(346.500000, 47.617000) rotate(-45.000000) translate(-346.500000, -47.617000) " x="313" y="14.117" width="67" height="67"></rect>
            <rect id="Rectangle" transform="translate(420.500000, 47.617000) rotate(-45.000000) translate(-420.500000, -47.617000) " x="387" y="14.117" width="67" height="67"></rect>
            <rect id="Rectangle" transform="translate(495.500000, 47.617000) rotate(-45.000000) translate(-495.500000, -47.617000) " x="462" y="14.117" width="67" height="67"></rect>
        </g>
        <g id="SmokeHousePi">
            <use fill="black" fill-opacity="1" filter="url(#filter-2)" xlink:href="#path-1"></use>
            <use fill="#FDF9F0" fill-rule="evenodd" xlink:href="#path-1"></use>
        </g>
        <g id="The-Open-Source-BBQ">
            <use fill="black" fill-opacity="1" filter="url(#filter-4)" xlink:href="#path-3"></use>
            <use fill="#FDF9F0" fill-rule="evenodd" xlink:href="#path-3"></use>
        </g>
    </g>
</svg>